STARTFONT 2.1
FONT -Monotype-Century Schoolbook-Regular-I-Normal--50-360-100-100-P-289-iso8859-2
SIZE 36 100 100
FONTBOUNDINGBOX 63 60 -9 -11

STARTPROPERTIES 24
FOUNDRY "Monotype"
FAMILY_NAME "Century Schoolbook"
WEIGHT_NAME "Regular"
SLANT "I"
SETWIDTH_NAME "Normal"
ADD_STYLE_NAME ""
PIXEL_SIZE 50
POINT_SIZE 360
RESOLUTION_X 100
RESOLUTION_Y 100
SPACING "P"
AVERAGE_WIDTH 289
CHARSET_REGISTRY "iso8859"
CHARSET_ENCODING "2"
FACE_NAME "Century Schoolbook Italic ISO Latin2"
_DEC_DEVICE_FONTNAMES "PS=centuryschoolbook-it-lat2"
COPYRIGHT "Copyright (c) 1993 Monotype Typography Ltd."
CAP_HEIGHT 44
X_HEIGHT 29
WEIGHT 10
QUAD_WIDTH 28
DEFAULT_CHAR 160
FONT_DESCENT 12
FONT_ASCENT 50
ENDPROPERTIES

CHARS 191

STARTCHAR space
ENCODING 32
SWIDTH 278 0
DWIDTH 14 0
BBX 0 0 0 0
BITMAP
ENDCHAR

STARTCHAR exclam
ENCODING 33
SWIDTH 333 0
DWIDTH 17 0
BBX 17 38 2 -1
BITMAP
000C00
001E00
001F00
003F00
003F00
003E00
003E00
003C00
007C00
007C00
007800
007800
007000
007000
00E000
00E000
00E000
00C000
01C000
01C000
018000
018000
018000
030000
030000
030000
020000
060000
000000
000000
000000
000000
3C0000
7E0000
7E0000
7E0000
3E0000
3C0000
ENDCHAR

STARTCHAR quotedbl
ENCODING 34
SWIDTH 400 0
DWIDTH 20 0
BBX 19 14 6 20
BITMAP
0F0780
0F0780
1F0F80
1F0F80
1E0F00
1E0F00
1C0E00
3C0E00
381C00
381C00
301C00
301800
301800
201000
ENDCHAR

STARTCHAR numbersign
ENCODING 35
SWIDTH 606 0
DWIDTH 30 0
BBX 31 36 2 0
BITMAP
000E00E0
000E01C0
000E01C0
001C01C0
001C01C0
001C01C0
001C0380
001C0380
00380380
00380380
3FFFFFF8
3FFFFFF8
3FFFFFF8
00700700
00700700
00700700
00700E00
00E00E00
00E00E00
00E00E00
00E01C00
00E01C00
3FFFFFF8
3FFFFFF8
3FFFFFF8
01C03C00
01C03800
03803800
03803800
03803800
03807000
03807000
07007000
07007000
07007000
07006000
ENDCHAR

STARTCHAR dollar
ENCODING 36
SWIDTH 556 0
DWIDTH 28 0
BBX 26 44 3 -7
BITMAP
00003000
00002000
0000E000
000FF800
001E7E00
00304700
0060C300
00E0C380
00C0C780
00C18F80
01C18F80
01C18F00
01E10200
01E30000
00F30000
00FB0000
00FE0000
007E0000
003F0000
001F8000
000FC000
000FE000
000FF000
0009F000
0018F800
00187800
3C187800
3E303800
7E303800
7C303800
7C303800
70607000
30607000
3860E000
1C41C000
0FC78000
07FE0000
00F00000
00800000
01800000
01800000
01800000
01000000
03000000
ENDCHAR

STARTCHAR percent
ENCODING 37
SWIDTH 833 0
DWIDTH 42 0
BBX 37 35 4 -1
BITMAP
0078000300
018E000600
0306000C00
0707001800
0E07001800
0E07003000
1E07006000
1C0F006000
3C0F00C000
3C0F018000
3C0E018000
381E030000
381C060000
381C0E0000
38380C0000
1830180000
1C60300000
07803007C0
0000601CE0
0000C03860
0000C03070
0001807070
000300F070
000300E070
000600E070
000C01E0F0
001C01E0F0
001801C0E0
003001C0E0
006001C1C0
006001C1C0
00C001C180
018000C380
018000E700
0000003C00
ENDCHAR

STARTCHAR ampersand
ENCODING 38
SWIDTH 852 0
DWIDTH 43 0
BBX 40 38 2 -1
BITMAP
00000F8000
00003FE000
0000F87800
0000E03800
0001E03C00
0003C01C00
0003C01C00
0007C01C00
0007C01C00
0007C03C00
0007C07800
0007C0F000
0007C1E000
0007E78000
0007FE0000
0003F00000
000FE00000
007FE03FFE
01F3F03FFE
03E1F007F0
07C1F003C0
0F81F803C0
1F01F80380
3F00F80300
3E00FC0700
3E00FC0600
7E007C0C00
7E007E1800
7E003E3800
7E003F7000
7F001FE008
3F001FC018
3F800FC038
1FC00FE070
1FE03FF0E0
0FFFFBFFC0
03FFE1FF80
007F007E00
ENDCHAR

STARTCHAR quoteright
ENCODING 39
SWIDTH 204 0
DWIDTH 10 0
BBX 12 13 4 24
BITMAP
0300
0F80
0FC0
0FC0
0FC0
07C0
01C0
0180
0380
0700
1C00
7800
2000
ENDCHAR

STARTCHAR parenleft
ENCODING 40
SWIDTH 333 0
DWIDTH 17 0
BBX 23 47 1 -10
BITMAP
000018
000070
0000E0
0003C0
000780
000F00
001E00
003C00
007800
00F800
00F000
01E000
03E000
03C000
07C000
078000
0F8000
0F0000
0F0000
1F0000
1F0000
1E0000
3E0000
3E0000
3E0000
3E0000
3C0000
3C0000
3C0000
3C0000
3C0000
3C0000
3C0000
3C0000
1C0000
1E0000
1E0000
1E0000
0E0000
0E0000
070000
070000
030000
018000
018000
00C000
004000
ENDCHAR

STARTCHAR parenright
ENCODING 41
SWIDTH 333 0
DWIDTH 17 0
BBX 23 47 -5 -10
BITMAP
000600
000600
000300
000380
000180
0001C0
0001C0
0000E0
0000E0
0000F0
000070
000070
000078
000078
000078
000078
000078
000078
000078
000078
000078
000078
0000F8
0000F8
0000F8
0000F0
0000F0
0001F0
0001E0
0001E0
0003E0
0003C0
0007C0
000780
000F80
000F00
001E00
003C00
003800
007800
00F000
01E000
038000
070000
0E0000
1C0000
300000
ENDCHAR

STARTCHAR asterisk
ENCODING 42
SWIDTH 500 0
DWIDTH 25 0
BBX 23 20 7 17
BITMAP
001000
003800
007C00
007C00
007C00
003800
383838
3E18F8
7F11FC
3FD3F8
1FFFF0
003800
006C00
00EE00
01C700
07C7C0
07C7C0
0783C0
0783C0
030180
ENDCHAR

STARTCHAR plus
ENCODING 43
SWIDTH 606 0
DWIDTH 30 0
BBX 30 27 3 3
BITMAP
00070000
00070000
00070000
00070000
00070000
00070000
00070000
00070000
00070000
00070000
00070000
00070000
7FFFFFF0
7FFFFFF0
7FFFFFF0
00070000
00070000
00070000
00070000
00070000
00070000
00070000
00070000
00070000
00070000
00070000
00070000
ENDCHAR

STARTCHAR comma
ENCODING 44
SWIDTH 278 0
DWIDTH 14 0
BBX 12 12 -1 -7
BITMAP
0780
0FC0
0FC0
0FC0
0FC0
03C0
0180
0380
0300
0E00
1C00
3000
ENDCHAR

STARTCHAR minus
ENCODING 45
SWIDTH 606 0
DWIDTH 30 0
BBX 30 3 3 15
BITMAP
7FFFFFF0
7FFFFFF0
7FFFFFF0
ENDCHAR

STARTCHAR period
ENCODING 46
SWIDTH 278 0
DWIDTH 14 0
BBX 9 6 2 -1
BITMAP
3C00
7E00
7E00
7E00
3E00
3C00
ENDCHAR

STARTCHAR slash
ENCODING 47
SWIDTH 606 0
DWIDTH 30 0
BBX 25 36 4 -1
BITMAP
00000F00
00000E00
00001E00
00001C00
00003800
00003800
00007000
00007000
0000E000
0000E000
0001C000
0001C000
00038000
00038000
00070000
000F0000
000E0000
001E0000
001C0000
003C0000
00380000
00780000
00700000
00E00000
00E00000
01C00000
01C00000
03800000
03800000
07000000
07000000
0E000000
1E000000
1C000000
3C000000
38000000
ENDCHAR

STARTCHAR zero
ENCODING 48
SWIDTH 556 0
DWIDTH 28 0
BBX 26 36 3 -1
BITMAP
0003E000
000FF800
001C1C00
00380E00
00700700
00E00700
01E00700
03C00780
03C00780
07C00780
07800780
0F800780
0F800F80
1F000F80
1F000F80
1F000F80
3E001F00
3E001F00
3E001F00
3E001F00
3C003E00
7C003E00
7C003E00
7C003C00
78007C00
78007800
78007800
7800F000
7800F000
3801E000
3801C000
38038000
1C070000
0E0E0000
07FC0000
01E00000
ENDCHAR

STARTCHAR one
ENCODING 49
SWIDTH 556 0
DWIDTH 28 0
BBX 22 35 3 0
BITMAP
000018
000070
0001F0
003FF0
007FF0
0007E0
0001E0
0001E0
0003C0
0003C0
0003C0
0003C0
000780
000780
000780
000780
000F00
000F00
000F00
001F00
001E00
001E00
001E00
003C00
003C00
003C00
003C00
007800
007800
007800
00F800
00F000
01F800
3FFFC0
3FFFC0
ENDCHAR

STARTCHAR two
ENCODING 50
SWIDTH 556 0
DWIDTH 28 0
BBX 30 35 0 0
BITMAP
0001FE00
0007FF80
001E0FC0
003803E0
003001F0
006000F0
006000F8
00E000F8
00F000F8
00FC00F8
00FE00F8
00FE01F8
007E01F0
003C03F0
000003E0
000007C0
00000F80
00001F00
00007C00
0000F800
0001E000
0007C000
000F0000
001C0000
00380000
00700180
00C00380
01800300
03000700
06000600
0C001E00
1FFFFE00
3FFFFC00
3FFFFC00
7FFFFC00
ENDCHAR

STARTCHAR three
ENCODING 51
SWIDTH 556 0
DWIDTH 28 0
BBX 29 35 1 -1
BITMAP
0001F800
0007FF00
001C0780
003803C0
003001E0
007801E0
007C01F0
007C01F0
007C01F0
003C01F0
000003E0
000003E0
000007C0
00000F80
00001F00
00007C00
003FE000
007FE000
0000F000
00003C00
00003E00
00001E00
00001F00
1E001F00
1F001F00
3F001F00
3F001F00
3E003E00
3C003E00
38007E00
1800FC00
0C01F800
0F07F000
03FFC000
00FE0000
ENDCHAR

STARTCHAR four
ENCODING 52
SWIDTH 556 0
DWIDTH 28 0
BBX 28 34 2 0
BITMAP
000001C0
000003C0
000003C0
00000780
00000F80
00001F80
00003F00
00007F00
0000EF00
0001DF00
00039E00
00071E00
000E1E00
001C3C00
00383C00
00703C00
00E07C00
01C07800
03807800
07007800
0E00F800
1C00F000
3800F000
3FFFFF00
3FFFFF00
0001E000
0001E000
0003E000
0003C000
0003C000
0007C000
000FC000
007FFC00
00FFF800
ENDCHAR

STARTCHAR five
ENCODING 53
SWIDTH 556 0
DWIDTH 28 0
BBX 28 35 3 -1
BITMAP
00080020
001F00C0
001FFF80
003FFF00
003FFE00
0033F000
00600000
00600000
00600000
00C00000
00C00000
00C00000
01800000
019F8000
03FFE000
03C1F000
07007800
06003C00
04003C00
00003E00
00003E00
00003E00
00003E00
00003E00
1E007E00
3F007C00
3F007C00
7F00FC00
7E00F800
7C01F000
7003E000
3007C000
1C1F8000
0FFE0000
03F00000
ENDCHAR

STARTCHAR six
ENCODING 54
SWIDTH 556 0
DWIDTH 28 0
BBX 28 35 4 -1
BITMAP
0000FC00
0003FF00
000F8780
001E07C0
003C0FC0
00780FC0
00F00FC0
01E00F80
03E00700
07C00000
07C00000
0F800000
0F800000
1F800000
1F0FC000
1F3FE000
3FF1F000
3FC0F800
3F807800
3F007C00
7F007C00
7E007C00
7E007C00
7C007C00
7C007C00
7C00F800
7C00F800
3C00F000
3C01F000
3C01E000
1C03C000
1E078000
0F0F0000
07FC0000
01F00000
ENDCHAR

STARTCHAR seven
ENCODING 55
SWIDTH 556 0
DWIDTH 28 0
BBX 27 35 6 -1
BITMAP
07FFFF80
07FFFF80
07FFFF00
0FFFFE00
0F000C00
0E001C00
1C003800
18007000
18006000
3000E000
3001C000
00038000
00070000
00070000
000E0000
001E0000
001C0000
00380000
00780000
00700000
00F00000
00F00000
01E00000
01E00000
03E00000
03C00000
07C00000
07C00000
0FC00000
0FC00000
0F800000
0F800000
0F800000
0F000000
07000000
ENDCHAR

STARTCHAR eight
ENCODING 56
SWIDTH 556 0
DWIDTH 28 0
BBX 29 35 1 -1
BITMAP
0000FC00
0003FF80
000F03C0
001C01E0
003800E0
00300070
00700070
00700070
00700070
00780070
007800E0
007C01E0
007E03C0
003F0700
003F9E00
001FF800
000FE000
001FF000
007BF800
01E0FC00
03C07E00
07003E00
0E003F00
1C001F00
1C000F00
38000F00
38000F00
38000F00
38000E00
1C001E00
1C003C00
0E007800
0780F000
01FFC000
007E0000
ENDCHAR

STARTCHAR nine
ENCODING 57
SWIDTH 556 0
DWIDTH 28 0
BBX 29 35 2 -1
BITMAP
0000F800
0003FE00
000F0700
001E0380
003C03C0
007801C0
00F801E0
00F801E0
01F001E0
01F001E0
03F003E0
03E003E0
03E003E0
03E007E0
03E007E0
01E00FE0
01E01FE0
01F03FC0
00F877C0
007FCFC0
001F0FC0
00000F80
00001F80
00001F00
00001F00
00003E00
0E003C00
1F007C00
3F00F800
3F00F000
3F01E000
3E07C000
1E0F0000
0FFC0000
03E00000
ENDCHAR

STARTCHAR colon
ENCODING 58
SWIDTH 278 0
DWIDTH 14 0
BBX 14 25 0 -1
BITMAP
01E0
03F0
03F0
03F0
03F0
01E0
0000
0000
0000
0000
0000
0000
0000
0000
0000
0000
0000
0000
0000
3C00
7E00
7E00
7E00
3E00
3C00
ENDCHAR

STARTCHAR semicolon
ENCODING 59
SWIDTH 278 0
DWIDTH 14 0
BBX 18 31 -2 -7
BITMAP
001E00
003F00
003F00
003F00
001F00
001E00
000000
000000
000000
000000
000000
000000
000000
000000
000000
000000
000000
000000
030000
078000
0FC000
0FC000
0FC000
07C000
01C000
018000
038000
070000
0E0000
380000
300000
ENDCHAR

STARTCHAR less
ENCODING 60
SWIDTH 606 0
DWIDTH 30 0
BBX 29 26 3 4
BITMAP
00000010
00000070
000001F0
00000FF0
00003FC0
0000FF00
0007F800
001FE000
007F0000
03FC0000
0FF00000
7F800000
7E000000
7C000000
7F800000
1FE00000
03FC0000
00FF0000
001FE000
0007F800
0001FF00
00003FC0
00000FF0
000003F0
00000070
00000010
ENDCHAR

STARTCHAR equal
ENCODING 61
SWIDTH 606 0
DWIDTH 30 0
BBX 30 15 3 10
BITMAP
7FFFFFF0
7FFFFFF0
7FFFFFF0
00000000
00000000
00000000
00000000
00000000
00000000
00000000
00000000
00000000
7FFFFFF0
7FFFFFF0
7FFFFFF0
ENDCHAR

STARTCHAR greater
ENCODING 62
SWIDTH 606 0
DWIDTH 30 0
BBX 29 26 3 4
BITMAP
40000000
70000000
7C000000
7F800000
1FE00000
07F80000
00FF0000
003FC000
000FF800
0001FE00
00007F80
00000FF0
000003F0
000001F0
00000FF0
00003FC0
0001FE00
0007F800
003FE000
00FF0000
03FC0000
1FE00000
7F800000
7E000000
70000000
40000000
ENDCHAR

STARTCHAR question
ENCODING 63
SWIDTH 444 0
DWIDTH 22 0
BBX 18 38 5 -1
BITMAP
00F000
03FC00
0E0E00
1C0700
180300
300380
200380
600380
600780
600F80
601F00
003F00
007E00
00FC00
01F800
03E000
07C000
0F0000
1E0000
1C0000
380000
380000
303000
303000
306000
18E000
1FC000
070000
000000
000000
000000
000000
3C0000
3E0000
7E0000
7E0000
7E0000
3C0000
ENDCHAR

STARTCHAR at
ENCODING 64
SWIDTH 747 0
DWIDTH 37 0
BBX 39 39 2 -2
BITMAP
0000FFC000
0007C0F800
001C001C00
0038000700
0060000380
01C0000180
01800000C0
0300000040
0600000060
06001E3020
0C00717020
0C00C17030
1801C0F030
180380E030
180700E030
380701E030
300E01C030
301E01C020
301C01C020
301C038060
303C038060
3038078040
30380F80C0
30380F0180
3838170100
183C270200
183FC70C08
181F87F818
0C0E01E010
0C00000030
0600000060
07000000C0
03000001C0
01C0000380
00E0000600
0070001C00
001E007000
0007FFC000
00007E0000
ENDCHAR

STARTCHAR A
ENCODING 65
SWIDTH 704 0
DWIDTH 35 0
BBX 40 36 -4 0
BITMAP
0000001C00
0000001C00
0000003C00
0000007C00
0000007C00
000000FC00
000001FC00
000001FE00
000003FE00
0000073E00
0000063E00
00000E3E00
00000C3E00
0000183E00
0000383F00
0000303F00
0000601F00
0000E01F00
0000C01F00
0001C01F00
0003801F00
0003001F80
0007FFFF80
000FFFFF80
000C000F80
001C000F80
0018000F80
0030000F80
0070000F80
0060000FC0
00E00007C0
01C00007C0
03C00007C0
07E0000FE0
3FFE00FFFE
3FFE00FFFC
ENDCHAR

STARTCHAR B
ENCODING 66
SWIDTH 722 0
DWIDTH 36 0
BBX 39 36 -2 0
BITMAP
003FFFFF00
003FFFFFC0
0001F803F0
0001F801F8
0001F000F8
0001F000FC
0003F000FC
0003E000FC
0003E000FC
0003E000FC
0007E000F8
0007C001F8
0007C001F0
0007C003E0
000F8007C0
000F801F00
000FFFF000
001FFFFC00
001F001F00
001F000FC0
001F0007C0
003E0003E0
003E0003F0
003E0003F0
003E0003F0
007C0003F0
007C0003F0
007C0003F0
00F80007E0
00F80007E0
00F8000FC0
00F8001F80
01F8003F00
01F800FE00
3FFFFFF800
3FFFFF8000
ENDCHAR

STARTCHAR C
ENCODING 67
SWIDTH 722 0
DWIDTH 36 0
BBX 36 38 4 -1
BITMAP
00003F0000
0001FFE000
000FC070C0
001F0039C0
003E001FC0
007C000FC0
00F8000780
01F0000780
03E0000780
07E0000780
07C0000380
0FC0000300
0F80000300
1F80000300
1F80000300
3F00000000
3F00000000
3F00000000
3F00000000
3E00000000
7E00000000
7E00000000
7E00000000
7E00000000
7E00000000
7E00000000
7E00000000
3E00000C00
3E00000C00
3F00001800
1F00001800
1F00003000
0F80006000
07C000C000
03E0038000
01F80F0000
007FFC0000
000FF00000
ENDCHAR

STARTCHAR D
ENCODING 68
SWIDTH 778 0
DWIDTH 39 0
BBX 42 36 -2 0
BITMAP
003FFFFC0000
003FFFFFC000
0001F803E000
0001F800F800
0001F0007C00
0001F0003C00
0003F0003E00
0003E0001E00
0003E0001F00
0003E0001F00
0007E0001F00
0007C0001F80
0007C0001F80
0007C0001F80
000FC0001F80
000F80001F80
000F80001F80
001F80001F80
001F00003F00
001F00003F00
001F00003F00
003F00003F00
003E00007E00
003E00007E00
003E00007E00
007E0000FC00
007C0000FC00
007C0001F800
007C0003F000
00F80003E000
00F80007C000
00F8000F8000
01F8003F0000
01F800FC0000
3FFFFFF00000
3FFFFF000000
ENDCHAR

STARTCHAR E
ENCODING 69
SWIDTH 722 0
DWIDTH 36 0
BBX 40 36 -1 0
BITMAP
003FFFFFFC
007FFFFFFC
0003F801FC
0001F0007C
0001F00038
0003F00038
0003E00038
0003E00038
0003E00030
0007C00030
0007C01830
0007C03000
000FC03000
000F807000
000F80E000
000F81E000
001FFFE000
001FFFE000
001F07C000
001F03C000
003E01C000
003E01C000
003E018000
007E018060
007C018060
007C0180E0
007C0000C0
00FC0001C0
00F80001C0
00F8000380
00F8000780
01F8000F80
01F0003F00
03F800FF00
3FFFFFFF00
3FFFFFFF00
ENDCHAR

STARTCHAR F
ENCODING 70
SWIDTH 667 0
DWIDTH 33 0
BBX 40 36 -1 0
BITMAP
007FFFFFFE
007FFFFFFE
0003F000FC
0003F0007C
0003E0003C
0003E0001C
0003E0001C
0007E00018
0007C00018
0007C00018
0007C00C18
000FC01800
000F801800
000F803800
001F807000
001F01F000
001FFFF000
001FFFF000
003F03E000
003E01E000
003E00E000
003E00E000
007E00C000
007C00C000
007C00C000
00FC00C000
00FC000000
00F8000000
00F8000000
01F8000000
01F8000000
01F0000000
01F0000000
03F0000000
7FFFC00000
7FFFC00000
ENDCHAR

STARTCHAR G
ENCODING 71
SWIDTH 778 0
DWIDTH 39 0
BBX 37 38 3 -1
BITMAP
00001FC000
0001FFF020
0003C07C60
000F001EE0
001E000FE0
007C0007C0
00F80003C0
01F00003C0
01F00003C0
03E00001C0
07E00001C0
07C0000180
0FC0000180
0F80000180
1F80000000
1F80000000
3F00000000
3F00000000
3F00000000
3F00000000
7E0003FFE0
7E0003FFE0
7E00003F00
7E00003E00
7E00003E00
7E00003E00
7E00003E00
3E00007C00
3E00007C00
3E00007C00
1F0000FC00
1F0000F800
0F8001F800
078003B800
03E0073800
01F01E3000
007FF83000
001FC00000
ENDCHAR

STARTCHAR H
ENCODING 72
SWIDTH 833 0
DWIDTH 42 0
BBX 47 36 0 0
BITMAP
007FFF83FFF8
007FFF03FFF8
0007F0001F80
0003E0001F00
0003E0001F00
0007E0003F00
0007C0003E00
0007C0003E00
000FC0003E00
000F80007E00
000F80007C00
000F80007C00
001F8000FC00
001F0000FC00
001F0000F800
001F0000F800
003FFFFFF800
003FFFFFF000
003E0001F000
007E0001F000
007C0003F000
007C0003E000
007C0003E000
00FC0003E000
00F80007E000
00F80007C000
00F80007C000
01F8000FC000
01F0000F8000
01F0000F8000
03F0000F8000
03E0001F8000
03E0001F0000
07F0003F8000
3FFF83FFF800
7FFF03FFF800
ENDCHAR

STARTCHAR I
ENCODING 73
SWIDTH 407 0
DWIDTH 20 0
BBX 27 36 -1 0
BITMAP
007FFFC0
007FFFC0
0001F800
0001F000
0001F000
0001F000
0003E000
0003E000
0003E000
0007E000
0007C000
0007C000
0007C000
000FC000
000F8000
000F8000
000F8000
001F0000
001F0000
001F0000
001F0000
003E0000
003E0000
003E0000
007E0000
007C0000
007C0000
007C0000
00FC0000
00F80000
00F80000
00F80000
01F80000
03F80000
3FFFC000
7FFFC000
ENDCHAR

STARTCHAR J
ENCODING 74
SWIDTH 611 0
DWIDTH 31 0
BBX 36 37 0 -1
BITMAP
00001FFFC0
00001FFFC0
000000FC00
000000FC00
000000F800
000000F800
000000F800
000001F800
000001F000
000001F000
000001F000
000003E000
000003E000
000003E000
000007E000
000007C000
000007C000
000007C000
00000FC000
00000F8000
00000F8000
00000F8000
07801F8000
0FC01F0000
1FE01F0000
3FE01F0000
3FE03E0000
7FC03E0000
61803E0000
60007C0000
60007C0000
6000F80000
3001F80000
3803F00000
1C07E00000
0FFF800000
01FE000000
ENDCHAR

STARTCHAR K
ENCODING 75
SWIDTH 741 0
DWIDTH 37 0
BBX 46 36 -2 0
BITMAP
003FFF87FFF0
003FFF87FFF0
0003F0007F00
0003F0007C00
0003E0007800
0003E000E000
0003E001C000
0007E0038000
0007C0070000
0007C01E0000
0007C0380000
000F80700000
000F80E00000
000F83C00000
001F87000000
001F0F800000
001F1F800000
001F7FC00000
003FE7C00000
003FC7E00000
003F87E00000
003F03F00000
007E03F00000
007C01F80000
007C01F80000
00FC00F80000
00F800FC0000
00F8007C0000
00F8007E0000
01F8003E0000
01F0003F0000
01F0001F0000
01F0001F8000
03F0001FC000
3FFF83FFFC00
7FFF83FFFC00
ENDCHAR

STARTCHAR L
ENCODING 76
SWIDTH 667 0
DWIDTH 33 0
BBX 34 36 0 0
BITMAP
00FFFF8000
00FFFF8000
0007F00000
0003E00000
0007E00000
0007C00000
0007C00000
0007C00000
000FC00000
000F800000
000F800000
000F800000
001F800000
001F000000
001F000000
001F000000
003E000000
003E000000
003E000000
007E000000
007C000000
007C000000
007C000000
00FC000000
00F8000100
00F8000300
00F8000700
01F8000600
01F0000E00
01F0001E00
03F0003E00
03E0007C00
03E000FC00
07F003FC00
7FFFFFF800
7FFFFFF800
ENDCHAR

STARTCHAR M
ENCODING 77
SWIDTH 944 0
DWIDTH 47 0
BBX 55 36 -1 0
BITMAP
003FFC00003FF8
007FFC00007FF8
0003FC00007F80
0001FC0000DF00
0003FC0001DF00
00033E0001BE00
00033E0003BE00
00033E00073E00
00073E00063E00
00063E000E7C00
00063E000C7C00
00063E00187C00
000E3E0038FC00
000C3E0030F800
000C3E0070F800
001C1F00E0F800
00181F00C1F000
00181F01C1F000
00181F0381F000
00381F0301F000
00301F0703E000
00301F0603E000
00301F0C03E000
00701F1C07E000
00601F1807C000
00600FB807C000
00600FF007C000
00E00FE00F8000
00C00FE00F8000
00C00FC00F8000
01C00F800F8000
01C00F801F0000
03E00F001F0000
0FF00F003F0000
7FFE0603FFF800
7FFE0407FFF800
ENDCHAR

STARTCHAR N
ENCODING 78
SWIDTH 815 0
DWIDTH 41 0
BBX 48 36 -1 0
BITMAP
003FF0007FFC
007FF0007FFC
0007F80007E0
0003F80003C0
0003FC000380
00037C000380
00037E000300
00033E000300
00073F000700
00061F000700
00061F800600
000E0F800600
000E0FC00E00
000C0FC00C00
000C07C00C00
001C07E00C00
001C03E01C00
001803F01800
001801F01800
003801F81800
003000F83800
003000FC3000
0070007C3000
0070007E7000
0060007E6000
0060003E6000
00E0003F6000
00E0001FE000
00C0001FC000
00C0000FC000
01C0000FC000
01C00007C000
03C000078000
07F000038000
3FFE00038000
3FFE00010000
ENDCHAR

STARTCHAR O
ENCODING 79
SWIDTH 778 0
DWIDTH 39 0
BBX 37 38 3 -1
BITMAP
00001FC000
0001FFF000
0007E03C00
000F001E00
003E000F00
007C000780
00F80007C0
01F00003C0
03F00003E0
03E00003E0
07E00003E0
0FC00003F0
0FC00003F0
1F800003F0
1F800003F0
1F800003F0
3F000003F0
3F000003F0
3F000003E0
3F000007E0
7E000007E0
7E000007E0
7E00000FC0
7E00000FC0
7E00000FC0
7E00001F80
3E00001F80
3E00003F00
3E00003E00
3E00007E00
1E00007C00
1F0000F800
0F0001F000
078003E000
03C0078000
01E03F0000
007FF80000
001FC00000
ENDCHAR

STARTCHAR P
ENCODING 80
SWIDTH 667 0
DWIDTH 33 0
BBX 39 36 -2 0
BITMAP
003FFFF800
003FFFFF80
0001F807E0
0001F001F0
0001F000F8
0001F000F8
0003F000F8
0003E000FC
0003E000FC
0007E000FC
0007C000FC
0007C000FC
0007C001F8
000FC001F8
000F8003F0
000F8007E0
000F800FC0
001F803F80
001FFFFC00
001FFFE000
003F000000
003F000000
003E000000
003E000000
007E000000
007C000000
007C000000
007C000000
00FC000000
00F8000000
00F8000000
01F8000000
01F8000000
03F8000000
3FFFC00000
3FFFC00000
ENDCHAR

STARTCHAR Q
ENCODING 81
SWIDTH 778 0
DWIDTH 39 0
BBX 37 46 3 -9
BITMAP
00001FC000
0001FFF000
0007C03C00
000F001E00
003E000F00
007C000780
00F80007C0
01F00003C0
03F00003E0
03E00003E0
07C00003E0
0FC00003F0
0FC00003F0
1F800003F0
1F800003F0
1F800003F0
3F000003F0
3F000003F0
3F000007E0
3E000007E0
7E000007E0
7E000007E0
7E00000FC0
7E00000FC0
7E07C00FC0
7E1FF01F80
7E38381F80
3E601C3F00
3E601C3E00
3E400E7E00
1EC00E7C00
1FC00EF800
0FC00FF000
07C00FE000
03E01F8000
01F03F0000
007FFF0000
000F9F0000
00001F0000
00001F0000
00001F0200
00001F8600
00001F8C00
00001FFC00
00000FF800
000003E000
ENDCHAR

STARTCHAR R
ENCODING 82
SWIDTH 741 0
DWIDTH 37 0
BBX 39 37 -1 -1
BITMAP
007FFFFC00
007FFFFF80
0003F807E0
0001F001F0
0001F000F8
0003E000F8
0003E000FC
0003E000FC
0007E000FC
0007C000FC
0007C000FC
0007C001F8
000FC001F8
000F8003F0
000F8007E0
000F803F80
001FFFFC00
001FFF8000
001F01E000
003F007000
003E007800
003E007C00
003E003C00
007E007C00
007C007C00
007C007C00
007C007C00
00FC007C00
00F8007C00
00F8007C00
01F8007C18
01F0007C10
01F0007E30
03F8007E60
3FFFC03FC0
7FFFC03F80
0000000F00
ENDCHAR

STARTCHAR S
ENCODING 83
SWIDTH 667 0
DWIDTH 33 0
BBX 34 38 2 -1
BITMAP
0000FC0000
0007FF0000
000E03C300
003C00E700
0078007F00
0070003E00
00E0003E00
00E0001E00
01E0001E00
01E0000E00
01E0000C00
01F0000C00
01F0000C00
01F8000C00
00FE000000
00FFC00000
007FF80000
003FFE0000
001FFF8000
0007FFC000
0001FFE000
00003FF000
00000FF800
080003F800
180001F800
180000F800
1C00007800
1C00007800
1C00007800
3C00007800
3E00007000
3E0000F000
3F0000E000
3F8001C000
7BC0078000
70F01F0000
007FFC0000
000FE00000
ENDCHAR

STARTCHAR T
ENCODING 84
SWIDTH 685 0
DWIDTH 34 0
BBX 38 36 3 0
BITMAP
03FFFFFFF0
03FFFFFFF0
07E07E07F0
07C07E01E0
07807C01E0
0F007C00E0
0E007C00E0
0C00FC00C0
1C00F800C0
1800F800C0
3800F800C0
3001F80080
2001F00180
0001F00000
0001F00000
0003E00000
0003E00000
0003E00000
0007E00000
0007C00000
0007C00000
0007C00000
000FC00000
000F800000
000F800000
000F800000
001F000000
001F000000
001F000000
003F000000
003E000000
003E000000
003E000000
007E000000
1FFFF80000
1FFFF80000
ENDCHAR

STARTCHAR U
ENCODING 85
SWIDTH 815 0
DWIDTH 41 0
BBX 41 37 6 -1
BITMAP
3FFFC03FFE00
7FFF803FFE00
03F80007F000
01F00003E000
03F00001C000
03E00001C000
03E000018000
03E000018000
07E000038000
07C000030000
07C000030000
07C000030000
0FC000030000
0F8000060000
0F8000060000
1F8000060000
1F0000060000
1F00000C0000
1F00000C0000
3F00000C0000
3E00000C0000
3E0000180000
3E0000180000
7E0000180000
7C0000180000
7C0000300000
7C0000300000
7C0000700000
7C0000600000
7C0000E00000
3E0000C00000
3E0001800000
1F0003800000
1F800F000000
0FE03C000000
03FFF8000000
007FC0000000
ENDCHAR

STARTCHAR V
ENCODING 86
SWIDTH 704 0
DWIDTH 35 0
BBX 40 37 3 -1
BITMAP
3FFF801FFE
3FFF003FFE
07F00003F0
03F00001E0
03F00001C0
03F0000180
01F0000380
01F0000300
01F0000600
01F0000E00
01F8000C00
01F8001C00
00F8003800
00F8003000
00F8007000
00F8006000
00F800C000
00FC01C000
007C018000
007C038000
007C030000
007C060000
007C0E0000
007E0C0000
003E180000
003E380000
003E300000
003E700000
003E600000
003FC00000
001FC00000
001F800000
001F800000
001F000000
001E000000
001E000000
000C000000
ENDCHAR

STARTCHAR W
ENCODING 87
SWIDTH 926 0
DWIDTH 46 0
BBX 49 37 5 -1
BITMAP
7FF87FFF07FE00
7FF87FFE07FE00
0FC007E000F800
0F8003E000F000
0F8003E000E000
0F8003E000C000
0F8003E001C000
0FC003E0018000
07C007E0038000
07C007E0030000
07C00FE0070000
07C00FE0060000
07C01BE00E0000
07C039E00C0000
07C031F01C0000
07C071F0180000
07C061F0380000
07C0E1F0300000
07C0C1F0700000
03E1C1F0600000
03E181F0E00000
03E381F0C00000
03E301F1C00000
03E701F1800000
03E601F3800000
03EE00F3000000
03EC00FF000000
03FC00FE000000
03F800FE000000
03F800FC000000
03F000FC000000
01F000F8000000
01E000F8000000
01E000F0000000
01C000F0000000
01C000E0000000
018000C0000000
ENDCHAR

STARTCHAR X
ENCODING 88
SWIDTH 704 0
DWIDTH 35 0
BBX 45 36 -3 0
BITMAP
007FFF83FFE0
007FFF83FFE0
0007F8007F00
0003F0003C00
0001F0003800
0001F8007000
0000F800E000
0000FC01C000
00007C038000
00007E070000
00003E0E0000
00003E1C0000
00003F380000
00001F700000
00001FE00000
00000FC00000
00000FC00000
000007C00000
000007C00000
00000FE00000
00001BE00000
000033F00000
000061F00000
0000E1F80000
0001C0F80000
000380F80000
000700FC0000
000E007C0000
001C007E0000
0038003E0000
0070003F0000
00F0001F0000
01F0001F8000
0FF8003FC000
3FFF03FFF800
3FFF03FFF800
ENDCHAR

STARTCHAR Y
ENCODING 89
SWIDTH 685 0
DWIDTH 34 0
BBX 36 36 5 0
BITMAP
3FFF00FFE0
7FFF01FFC0
07E0003F00
07E0001E00
03E0001C00
03F0001800
01F0003000
01F0007000
01F800E000
00F801C000
00FC018000
007C030000
007C070000
007E0E0000
003E1C0000
003F180000
001F300000
001FF00000
000FE00000
000FC00000
000FC00000
000F800000
000F800000
000F800000
001F000000
001F000000
001F000000
003F000000
003E000000
003E000000
003E000000
007E000000
007C000000
00FE000000
1FFFF00000
1FFFE00000
ENDCHAR

STARTCHAR Z
ENCODING 90
SWIDTH 667 0
DWIDTH 33 0
BBX 37 36 0 0
BITMAP
001FFFFFF0
001FFFFFF0
001FC00FE0
003F000FC0
003E001F80
003C003F00
0078007E00
007000FE00
006001FC00
00E001F800
00C003F000
00C007E000
00000FC000
00001F8000
00003F8000
00007F0000
00007E0000
0000FC0000
0001F80000
0003F00000
0007F00000
000FE00000
000FC00000
001F800200
003F000300
007E000600
00FE000600
01FC000E00
01F8001C00
03F0003C00
07E0007C00
0FC000F800
1F8003F800
3F801FF800
7FFFFFF800
7FFFFFF000
ENDCHAR

STARTCHAR bracketleft
ENCODING 91
SWIDTH 333 0
DWIDTH 17 0
BBX 24 45 -1 -9
BITMAP
0007FE
0007FC
000F80
000F00
000F00
000F00
001E00
001E00
001E00
001E00
003C00
003C00
003C00
003800
007800
007800
007800
00F000
00F000
00F000
00F000
01E000
01E000
01E000
01E000
03C000
03C000
03C000
03C000
078000
078000
078000
0F0000
0F0000
0F0000
0F0000
1E0000
1E0000
1E0000
1E0000
3C0000
3C0000
3E0000
3FE000
7FE000
ENDCHAR

STARTCHAR backslash
ENCODING 92
SWIDTH 606 0
DWIDTH 30 0
BBX 11 36 11 -1
BITMAP
3800
3800
3800
3800
3C00
3C00
3C00
1C00
1C00
1C00
1C00
1C00
1E00
1E00
0E00
0E00
0E00
0E00
0E00
0E00
0F00
0F00
0700
0700
0700
0700
0700
0700
0780
0780
0380
0380
0380
0380
0380
03C0
ENDCHAR

STARTCHAR bracketright
ENCODING 93
SWIDTH 333 0
DWIDTH 17 0
BBX 25 45 -5 -9
BITMAP
0003FE00
0007FE00
00003E00
00003C00
00003C00
00003C00
00007800
00007800
00007800
00007800
0000F000
0000F000
0000F000
0000F000
0001E000
0001E000
0001E000
0001C000
0003C000
0003C000
0003C000
00078000
00078000
00078000
00078000
000F0000
000F0000
000F0000
000E0000
001E0000
001E0000
001E0000
003C0000
003C0000
003C0000
003C0000
00780000
00780000
00780000
00780000
00F00000
00F00000
01F00000
3FE00000
3FE00000
ENDCHAR

STARTCHAR asciicircum
ENCODING 94
SWIDTH 606 0
DWIDTH 30 0
BBX 25 18 5 17
BITMAP
00080000
000C0000
001C0000
003E0000
003E0000
00770000
00638000
00E38000
01C1C000
01C1C000
0380E000
03806000
07007000
0E003800
0E003800
1C001C00
1C001C00
38000E00
ENDCHAR

STARTCHAR underscore
ENCODING 95
SWIDTH 500 0
DWIDTH 25 0
BBX 29 3 -2 -6
BITMAP
3FFFFFE0
3FFFFFE0
3FFFFFE0
ENDCHAR

STARTCHAR quoteleft
ENCODING 96
SWIDTH 204 0
DWIDTH 10 0
BBX 12 13 4 24
BITMAP
0040
01C0
0380
0E00
1C00
1800
3800
3E00
3F00
3F00
3F00
1E00
0C00
ENDCHAR

STARTCHAR a
ENCODING 97
SWIDTH 574 0
DWIDTH 29 0
BBX 30 25 0 -1
BITMAP
000F8060
003FE1C0
00F873C0
01E03BC0
03C01B80
07C00F80
07800F80
0F000F80
1F000F00
1E000F00
1E000F00
3E000E00
3E001E00
3C001E00
3C001E00
3C003C00
3C003C10
3C003C30
3C007830
1E00F860
1E00F8C0
0F01B9C0
0F873F80
03FE3F00
01F81C00
ENDCHAR

STARTCHAR b
ENCODING 98
SWIDTH 556 0
DWIDTH 28 0
BBX 24 38 3 -1
BITMAP
00F800
0FF800
01F000
00F000
00F000
01F000
01E000
01E000
01E000
03C000
03C000
03C000
078000
0787E0
079FF0
07B8F8
0F607C
0FC03C
0F803C
1F003E
1F003E
1E003E
1E003E
3C003E
3C003E
3C003C
3C007C
78007C
780078
7800F8
7800F0
7801F0
7801E0
3C03C0
3C0780
1E0F00
0FFC00
01E000
ENDCHAR

STARTCHAR c
ENCODING 99
SWIDTH 444 0
DWIDTH 22 0
BBX 23 25 0 -1
BITMAP
000780
003FE0
007830
01E018
03C038
0780F8
0780F8
0F00F8
0F0070
1E0000
1E0000
3E0000
3E0000
3C0000
3C0000
3C0000
3C0000
3C0000
3E0020
3E0060
1E0060
1F01C0
0F8380
07FE00
01F800
ENDCHAR

STARTCHAR d
ENCODING 100
SWIDTH 611 0
DWIDTH 31 0
BBX 32 38 0 -1
BITMAP
0000007C
000007FC
000000F8
00000078
00000078
000000F8
000000F0
000000F0
000000F0
000001E0
000001E0
000001E0
000001E0
000FC3C0
003FE3C0
00F873C0
01F01F80
03E01F80
03C00F80
07800F80
0F800F00
0F000F00
1F000F00
1F001E00
1E001E00
3E001E00
3E001E00
3C003C00
3C003C00
3C003C18
3C007810
3C007830
3E00F860
1E01F8C0
1F0379C0
0F8E3F80
07FC3F00
01F01C00
ENDCHAR

STARTCHAR e
ENCODING 101
SWIDTH 444 0
DWIDTH 22 0
BBX 23 25 0 -1
BITMAP
0007C0
001FE0
0070F0
00E078
01C078
038078
078078
0F0078
0F00F0
1F01E0
1E03C0
1E0780
3E1E00
3FF800
3F8000
3C0000
3C0000
3C0000
3C0020
1C0060
1E00E0
0F01C0
0F8780
07FE00
01F800
ENDCHAR

STARTCHAR f
ENCODING 102
SWIDTH 333 0
DWIDTH 17 0
BBX 27 46 -3 -9
BITMAP
00001F00
00003F80
00006780
0000C780
0001C780
0001C000
00038000
00038000
00078000
00070000
000F0000
000F0000
000F0000
001E0000
01FFF000
01FFF000
001E0000
001C0000
003C0000
003C0000
003C0000
00380000
00780000
00780000
00780000
00700000
00F00000
00F00000
00F00000
00F00000
01E00000
01E00000
01E00000
01E00000
03C00000
03C00000
03C00000
07C00000
07800000
07800000
0F800000
0F000000
1F000000
1F000000
3E000000
38000000
ENDCHAR

STARTCHAR g
ENCODING 103
SWIDTH 537 0
DWIDTH 27 0
BBX 32 34 -3 -9
BITMAP
000000FC
0000F9FE
0007FF1E
001F078C
003E03C0
007C01C0
007801E0
00F801E0
00F001E0
00F001E0
00F003E0
00F003E0
007807C0
00780780
001C1F00
007FFC00
01E1F000
03800000
07000000
07000000
07FE0000
07FFFC00
03FFFF00
00FFFF80
07803F80
1C000780
38000380
78000380
78000380
78000700
3C000E00
1E003C00
07FFF000
007E0000
ENDCHAR

STARTCHAR h
ENCODING 104
SWIDTH 611 0
DWIDTH 31 0
BBX 30 38 0 -1
BITMAP
001F0000
01FF0000
003E0000
001E0000
001E0000
003E0000
003C0000
003C0000
003C0000
00780000
00780000
00780000
00780000
00F03C00
00F0FF00
00F1FF00
01E30F80
01E60780
01EC0780
01F80780
03F00780
03E00780
03E00F00
07C00F00
07800F00
07801E00
07801E00
0F001E00
0F003C00
0F003C18
1E003C30
1E007830
1E007860
1E0078C0
3C0079C0
3C003F80
3C003F00
00000C00
ENDCHAR

STARTCHAR i
ENCODING 105
SWIDTH 333 0
DWIDTH 17 0
BBX 14 37 3 -1
BITMAP
00E0
01F0
01F0
01F0
00E0
0000
0000
0000
0000
0000
0000
0000
07C0
7FC0
0780
0780
0780
0780
0700
0F00
0F00
0F00
0E00
1E00
1E00
1E00
1C00
3C00
3C10
3C10
3830
7860
7860
78C0
7B80
3F00
1E00
ENDCHAR

STARTCHAR j
ENCODING 106
SWIDTH 315 0
DWIDTH 16 0
BBX 23 46 -7 -10
BITMAP
000078
00007C
0000FC
00007C
000078
000000
000000
000000
000000
000000
000000
000000
0000F0
000FF0
0001F0
0001F0
0001E0
0001E0
0001E0
0001E0
0003C0
0003C0
0003C0
0003C0
000380
000780
000780
000780
000700
000F00
000F00
000F00
000E00
001E00
001E00
001E00
001C00
003C00
003C00
003800
1C7800
3C7000
3C6000
3CE000
3F8000
0F0000
ENDCHAR

STARTCHAR k
ENCODING 107
SWIDTH 556 0
DWIDTH 28 0
BBX 28 37 0 -1
BITMAP
001F0000
01FF0000
001E0000
001E0000
001E0000
001E0000
003C0000
003C0000
003C0000
00780000
00780000
00780000
00783E00
00F0FF80
00F187C0
00F303C0
01E603C0
01EC03C0
01F80380
01F00380
03E00700
03E00E00
03C01800
07C0F000
079F8000
078D8000
0781C000
0F01E000
0F01E040
0F01E060
1E01E0C0
1E01E180
1E01E180
1E00F300
3C00FE00
3C00FC00
00003000
ENDCHAR

STARTCHAR l
ENCODING 108
SWIDTH 333 0
DWIDTH 17 0
BBX 16 38 2 -1
BITMAP
007C
07FC
00FC
0078
0078
0078
0078
00F0
00F0
00F0
01E0
01E0
01E0
01E0
03C0
03C0
03C0
0780
0780
0780
0780
0F00
0F00
0F00
0E00
1E00
1E00
1E00
3C00
3C10
3C10
3C30
7860
7860
78C0
7980
3F00
3E00
ENDCHAR

STARTCHAR m
ENCODING 109
SWIDTH 889 0
DWIDTH 44 0
BBX 43 25 1 -1
BITMAP
00F03800E000
0FF0FE07F800
03F3FF0FF800
01E60F187C00
01EC0F303C00
01E80F603C00
01F80FC03C00
01F00F803C00
03E00F807800
03E01F007800
03C01F007800
03C01E00F800
07801E00F000
07803C00F000
07803C01F000
0F003C01E000
0F007801E080
0F007803E180
0F007803C300
1E007803C300
1E00F003C600
1E00F003CC00
1C00F003F800
3C00F001F000
20010000C000
ENDCHAR

STARTCHAR n
ENCODING 110
SWIDTH 611 0
DWIDTH 31 0
BBX 29 25 1 -1
BITMAP
03E03800
1FE0FE00
03E3FF00
01E71F00
01CC0F00
03D80F00
03D00F00
03F00F00
03E00E00
07C01E00
07C01E00
07801E00
0F803C00
0F003C00
0F003C00
0F007800
1E007830
1E007820
1E00F060
1C00F0C0
3C00F1C0
3C00F380
3C007F00
78007E00
00001800
ENDCHAR

STARTCHAR o
ENCODING 111
SWIDTH 500 0
DWIDTH 25 0
BBX 26 25 -1 -1
BITMAP
000FC000
003FF000
00F87800
01E03C00
03C01E00
07801E00
0F800F00
0F000F00
1F000F00
1F000F00
1E000F00
3E000F00
3E001F00
3E001F00
3C001F00
3C003E00
3C003E00
3C003C00
1C007C00
1E007800
0E00F000
0F01E000
0783C000
01FF0000
00780000
ENDCHAR

STARTCHAR p
ENCODING 112
SWIDTH 574 0
DWIDTH 29 0
BBX 34 33 -6 -9
BITMAP
000FC3F000
003FCFF800
000FDC7C00
0007B01E00
0007A01E00
0007C00F00
0007C00F00
0007800F00
000F800F00
000F000F00
000F000F00
001E000F00
001E001F00
001E001F00
001E001E00
003C003E00
003C003C00
003C007C00
007C007800
007E00F800
007E01F000
007B03E000
00F387C000
00F1FF0000
00F07C0000
01E0000000
01E0000000
01E0000000
01E0000000
03C0000000
07C0000000
3FFC000000
3FFC000000
ENDCHAR

STARTCHAR q
ENCODING 113
SWIDTH 556 0
DWIDTH 28 0
BBX 27 33 1 -9
BITMAP
000780C0
003FE180
00F87180
01E03B80
03C01F00
07801F00
0F801F00
0F001F00
1F001E00
1E001E00
3E001E00
3E001C00
3C003C00
7C003C00
7C003C00
7C007800
7C007800
7C00F800
7C00F000
3C01F000
3E03F000
3E06F000
1F0FE000
0FF9E000
03E1E000
0001C000
0003C000
0003C000
0003C000
00078000
000F8000
007FF800
007FF800
ENDCHAR

STARTCHAR r
ENCODING 114
SWIDTH 444 0
DWIDTH 22 0
BBX 22 24 1 0
BITMAP
07E1E0
1FE7F0
07C6F8
03CCF8
03D8F8
03D0F0
03B020
03A000
03E000
07C000
07C000
078000
078000
0F8000
0F0000
0F0000
1F0000
1E0000
1E0000
1E0000
3C0000
3C0000
3C0000
380000
ENDCHAR

STARTCHAR s
ENCODING 115
SWIDTH 444 0
DWIDTH 22 0
BBX 23 25 -1 -1
BITMAP
001F80
007FE0
00E0F0
018078
038078
0300F8
0700F8
070070
078000
07E000
07FC00
03FF00
01FFC0
003FE0
000FF0
0001F0
1E00F0
3E00F0
3E00F0
3E00E0
3C00E0
1C01C0
1E0780
07FE00
01F000
ENDCHAR

STARTCHAR t
ENCODING 116
SWIDTH 352 0
DWIDTH 18 0
BBX 16 32 2 -1
BITMAP
00F0
00F0
00F0
00E0
01E0
01E0
01E0
03C0
3FFC
7FFC
03C0
0780
0780
0780
0F00
0F00
0F00
0F00
1E00
1E00
1E00
3C00
3C00
3C08
3C0C
7818
7810
7830
7860
7DC0
3F80
1F00
ENDCHAR

STARTCHAR u
ENCODING 117
SWIDTH 611 0
DWIDTH 31 0
BBX 29 25 2 -1
BITMAP
01F00000
3FF003C0
03E00780
03E00780
03E00780
03C00F00
03C00F00
07C00F00
07800F00
07801E00
0F801E00
0F003E00
0F003C00
0F003C00
1E007C00
1E007800
1E00F830
3C01F820
3C037060
3C06F0C0
3C0CF0C0
3E18F180
1FF0FF00
1FE07E00
07803800
ENDCHAR

STARTCHAR v
ENCODING 118
SWIDTH 519 0
DWIDTH 26 0
BBX 24 25 2 -1
BITMAP
07C038
7FC078
1FC07C
07803C
07801C
07801C
0F800C
0F000C
0F000C
0F000C
1E000C
1E0018
1E0018
1E0018
3C0030
3C0030
3C0060
3C0060
3C00C0
3C01C0
1C0380
1E0700
0F0E00
07F800
03E000
ENDCHAR

STARTCHAR w
ENCODING 119
SWIDTH 778 0
DWIDTH 39 0
BBX 36 25 3 -1
BITMAP
03E0000380
3FC00E0380
1FC01E07C0
07C01E03C0
03801E01C0
07803C01C0
07803C00C0
07003C00C0
0F003C00C0
0F007800C0
0F00780080
1E00780180
1E00F00180
1E00F00180
3C00F00300
3C01F00300
3C01F00200
3803F00600
7806E00C00
7804F00C00
780CF01800
7818F03000
3C7078E000
3FE07FC000
1F803F0000
ENDCHAR

STARTCHAR x
ENCODING 120
SWIDTH 500 0
DWIDTH 25 0
BBX 28 25 -1 -1
BITMAP
00F00780
01F80FC0
03FC1FC0
033C3BC0
063C31C0
041E6000
0C1E4000
081EC000
001F8000
001F8000
000F0000
000F0000
000F0000
000F0000
000F0000
001F8000
00178000
00378080
00278180
3863C100
38C3C300
7D83C600
7F83FC00
3F01F800
3E00E000
ENDCHAR

STARTCHAR y
ENCODING 121
SWIDTH 500 0
DWIDTH 25 0
BBX 29 34 -3 -10
BITMAP
007800E0
00FC01E0
01FC01E0
01BE01E0
031E01E0
031E01C0
020F00C0
020F01C0
00070180
00070180
00078100
00078300
00078200
00038600
0003C400
0003CC00
0003C800
0003D800
0001F000
0001F000
0001E000
0001C000
0001C000
00018000
00018000
00030000
00060000
00060000
380C0000
7C180000
7C300000
7CE00000
3FC00000
1F000000
ENDCHAR

STARTCHAR z
ENCODING 122
SWIDTH 463 0
DWIDTH 23 0
BBX 26 25 -1 -1
BITMAP
003E0100
00FFC300
01FFFF00
03FFFE00
0600FE00
06000C00
0C001800
00003800
00007000
0001E000
00078000
000F0000
003E0000
00780000
01F00000
03C00000
07000000
0E000600
0C000400
1FF00C00
3FFE1800
37FFF000
30FFF000
703FC000
200F8000
ENDCHAR

STARTCHAR braceleft
ENCODING 123
SWIDTH 333 0
DWIDTH 17 0
BBX 23 47 3 -10
BITMAP
00001C
000070
0001C0
000300
000700
000E00
001E00
001C00
003C00
003C00
003C00
003C00
003C00
007C00
007C00
007800
007800
007000
006000
00C000
018000
030000
1C0000
700000
0C0000
060000
070000
038000
038000
038000
078000
078000
0F8000
0F0000
1F0000
1E0000
1E0000
3C0000
3C0000
3C0000
380000
380000
180000
1C0000
0E0000
038000
008000
ENDCHAR

STARTCHAR bar
ENCODING 124
SWIDTH 606 0
DWIDTH 30 0
BBX 7 45 14 -9
BITMAP
38
38
38
38
38
38
38
38
38
38
38
38
38
38
38
38
38
38
38
38
38
38
38
38
38
38
38
38
38
38
38
38
38
38
38
38
38
38
38
38
38
38
38
38
38
ENDCHAR

STARTCHAR braceright
ENCODING 125
SWIDTH 333 0
DWIDTH 17 0
BBX 23 47 -6 -10
BITMAP
000300
0001C0
000060
000070
000038
000038
000038
000078
000078
000078
0000F8
0000F0
0001F0
0001E0
0003E0
0003C0
0003C0
000380
000380
000180
0001C0
0000E0
000030
00001C
000060
000180
000700
000E00
000C00
001C00
003C00
003C00
007C00
007C00
007C00
007800
007800
007800
007800
007000
00E000
00E000
01C000
038000
060000
180000
400000
ENDCHAR

STARTCHAR asciitilde
ENCODING 126
SWIDTH 606 0
DWIDTH 30 0
BBX 29 8 3 13
BITMAP
07C00010
0FF80030
1FFE0030
387FC060
300FF0E0
2003FFC0
6000FF80
60001F00
ENDCHAR

STARTCHAR space
ENCODING 160
SWIDTH 278 0
DWIDTH 17 0
BBX 0 0 0 0
BITMAP
ENDCHAR

STARTCHAR Aogonek
ENCODING 161
SWIDTH 704 0
DWIDTH 35 0
BBX 42 45 -4 -9
BITMAP
000000180000
0000003C0000
0000003C0000
0000007C0000
0000007C0000
000000FC0000
000001FC0000
000001FC0000
000003FE0000
0000073E0000
0000063E0000
00000E3E0000
00001C3E0000
0000183E0000
0000383E0000
0000303F0000
0000601F0000
0000E01F0000
0000C01F0000
0001801F0000
0003801F0000
0003001F0000
0007FFFF8000
000FFFFF8000
000C000F8000
001C000F8000
0018000F8000
0030000F8000
0070000F8000
0060000FC000
00E00007C000
01E00007C000
03E00007C000
07E0000FE000
3FFE00FFFE00
3FFE00FFFC00
000000020000
000000060000
0000000E0000
0000000E0000
0000000F0000
0000000F8000
00000007C100
00000003FF00
00000001FC00
ENDCHAR

STARTCHAR breve
ENCODING 162
SWIDTH 333 0
DWIDTH 17 0
BBX 15 8 6 27
BITMAP
6008
6018
6018
7078
3FF0
3FE0
1FC0
0700
ENDCHAR

STARTCHAR Lslash
ENCODING 163
SWIDTH 667 0
DWIDTH 33 0
BBX 34 36 -1 0
BITMAP
00FFFF8000
00FFFF8000
0007F00000
0007E00000
0007E00000
0007C00000
0007C00000
0007C00000
000F800000
000F800000
000F800000
001F807000
001F01E000
001F0F8000
001F3E0000
003FF00000
003FC00000
003F000000
00FE000000
07FC000000
1F7C000000
187C000000
00FC000000
00F8000000
00F8000300
00F8000300
01F8000700
01F0000600
01F0000E00
01F0001E00
03F0003C00
03E0007C00
03E000FC00
07E003FC00
7FFFFFF800
7FFFFFF800
ENDCHAR

STARTCHAR currency
ENCODING 164
SWIDTH 606 0
DWIDTH 30 0
BBX 26 24 2 4
BITMAP
10000200
383F8700
7DFFEF80
3FFFFF00
1FC0FE00
0F003C00
0E001E00
1C000E00
1C000F00
38000700
38000700
38000700
38000700
38000700
3C000700
1C000F00
1E000E00
0E001E00
0F803C00
1FE0FE00
3FFFFF00
7DFFEF80
387F0700
10000200
ENDCHAR

STARTCHAR Lcaron
ENCODING 165
SWIDTH 667 0
DWIDTH 33 0
BBX 37 37 0 0
BITMAP
0000000180
00FFFF87C0
00FFFF87E0
0007F007E0
0003E007E0
0007E003E0
0007C000E0
0007C000C0
0007C00180
000FC00380
000F800E00
000F801C00
000F801000
001F800000
001F000000
001F000000
001F000000
003E000000
003E000000
003E000000
007E000000
007C000000
007C000000
007C000000
00FC000000
00F8000100
00F8000300
00F8000300
01F8000600
01F0000E00
01F0001E00
03F0003E00
03E0007C00
03E000FC00
07F003FC00
7FFFFFF800
7FFFFFF800
ENDCHAR

STARTCHAR Sacute
ENCODING 166
SWIDTH 667 0
DWIDTH 33 0
BBX 34 50 2 -1
BITMAP
0000006000
000000F000
000001F000
000003E000
000007C000
00000F8000
00001E0000
0000180000
0000300000
0000400000
0000000000
0000000000
0000FC0000
0007FF0000
000E03C300
003C00EF00
0078007F00
0070003E00
00E0003E00
00E0001E00
01E0001E00
01E0000E00
01E0000C00
01F0000C00
01F0000C00
01F8000C00
00FE000000
00FFC00000
007FF80000
003FFE0000
001FFF8000
0007FFC000
0001FFE000
00003FF000
00000FF800
080003F800
180001F800
180000F800
1C00007800
1C00007800
1C00007800
3C00007800
3E00007000
3E0000F000
3F0000E000
3F8001C000
7BC0078000
70F01F0000
003FFC0000
000FE00000
ENDCHAR

STARTCHAR section
ENCODING 167
SWIDTH 500 0
DWIDTH 25 0
BBX 28 47 0 -10
BITMAP
00003C00
0001FF80
000383C0
000603C0
000E07C0
000C07C0
001C07C0
001C0380
001C0000
001E0000
001E0000
001F0000
000F0000
000F8000
0007C000
001FC000
0033E000
00E3F000
00C1F000
0180F800
0380F800
03807800
03807800
03C07800
03C03800
03C03800
03E03800
01E03000
01F07000
00F86000
00F8C000
007F8000
007E0000
003E0000
001E0000
001F0000
000F0000
000F0000
00070000
00070000
1C070000
3E070000
3E060000
3E0E0000
3C0C0000
1C380000
0FE00000
ENDCHAR

STARTCHAR dieresis
ENCODING 168
SWIDTH 333 0
DWIDTH 17 0
BBX 18 5 5 27
BITMAP
380E00
7C1F00
7C1F00
7C1F00
380E00
ENDCHAR

STARTCHAR Scaron
ENCODING 169
SWIDTH 667 0
DWIDTH 33 0
BBX 34 49 2 -1
BITMAP
0002003000
0003006000
000181C000
0001E78000
0000FF0000
00007E0000
00007C0000
0000380000
0000000000
0000000000
0000000000
0000FC0000
0007FF0000
000E03C300
003C00EF00
0078007F00
0070003E00
00E0003E00
00E0001E00
01E0001E00
01E0000E00
01E0000C00
01F0000C00
01F0000C00
01F8000C00
00FE000000
00FFC00000
007FF80000
003FFE0000
001FFF8000
0007FFC000
0001FFE000
00003FF000
00000FF800
080003F800
180001F800
180000F800
1C00007800
1C00007800
1C00007800
3C00007800
3E00007000
3E0000F000
3F0000E000
3F8001C000
7BC0078000
70F01F0000
003FFC0000
000FE00000
ENDCHAR

STARTCHAR Scommaaccent
ENCODING 170
SWIDTH 667 0
DWIDTH 33 0
BBX 34 47 2 -10
BITMAP
0000FC0000
0007FF0000
000E03C300
003C00EF00
0078007F00
0070003E00
00E0003E00
00E0001E00
01E0001E00
01E0000E00
01E0000C00
01F0000C00
01F0000C00
01F8000C00
00FE000000
00FFC00000
007FF80000
003FFE0000
001FFF8000
0007FFC000
0001FFE000
00003FF000
00000FF800
080003F800
180001F800
180000F800
1C00007800
1C00007800
1C00007800
3C00007800
3E00007000
3E0000F000
3F0000E000
3F8001C000
7BC0078000
70F01F0000
003FFC0000
000FE00000
0000000000
0000000000
001E000000
001F000000
001F000000
0007000000
0006000000
000C000000
0038000000
ENDCHAR

STARTCHAR Tcaron
ENCODING 171
SWIDTH 685 0
DWIDTH 34 0
BBX 38 48 3 0
BITMAP
0001000400
0000C01800
0000603000
000070E000
00003BC000
00003F8000
00001F8000
00000F0000
0000000000
0000000000
0000000000
0000000000
03FFFFFFF0
03FFFFFFF0
07F07E07F0
07C07E01E0
07807C01E0
0F007C00E0
0E007C00E0
0C00FC00C0
1C00F800C0
1800F800C0
3000F800C0
3001F80080
2001F00180
0001F00000
0001F00000
0003E00000
0003E00000
0003E00000
0007E00000
0007C00000
0007C00000
0007C00000
000FC00000
000F800000
000F800000
000F800000
001F000000
001F000000
001F000000
003F000000
003E000000
003E000000
003E000000
007E000000
1FFFF80000
1FFFF80000
ENDCHAR

STARTCHAR Zacute
ENCODING 172
SWIDTH 667 0
DWIDTH 33 0
BBX 37 49 0 0
BITMAP
0000001000
0000003800
0000007C00
000000F800
000001F000
000003E000
0000078000
0000070000
00000C0000
0000100000
0000000000
0000000000
0000000000
001FFFFFF0
001FFFFFF0
001FC00FE0
003F000FC0
003E001F80
003C003F00
0078007E00
007000FE00
006001FC00
00E001F800
00C003F000
00C007E000
00000FC000
00001F8000
00003F8000
00007F0000
00007E0000
0000FC0000
0001F80000
0003F00000
0007F00000
000FE00000
000FC00000
001F800200
003F000300
007E000600
00FE000600
01FC000E00
01F8001C00
03F0003C00
07E0007C00
0FC000F800
1F8003F800
3F800FF800
7FFFFFF800
7FFFFFF000
ENDCHAR

STARTCHAR hyphen
ENCODING 173
SWIDTH 333 0
DWIDTH 17 0
BBX 14 4 2 9
BITMAP
3FF0
3FF0
3FE0
7FE0
ENDCHAR

STARTCHAR Zcaron
ENCODING 174
SWIDTH 667 0
DWIDTH 33 0
BBX 37 48 0 0
BITMAP
0000200100
0000300600
0000180C00
00001C3800
00000FF000
000007E000
000007C000
000003C000
0000000000
0000000000
0000000000
0000000000
001FFFFFF0
001FFFFFF0
001FC00FE0
003F000FC0
003E001F80
003C003F00
0078007E00
007000FE00
006001FC00
00E001F800
00C003F000
00C007E000
00000FC000
00001F8000
00003F8000
00007F0000
00007E0000
0000FC0000
0001F80000
0003F00000
0007F00000
000FE00000
000FC00000
001F800200
003F000300
007E000600
00FE000600
01FC000E00
01F8001C00
03F0003C00
07E0007C00
0FC000F800
1F8003F800
3F800FF800
7FFFFFF800
7FFFFFF000
ENDCHAR

STARTCHAR Zdotaccent
ENCODING 175
SWIDTH 667 0
DWIDTH 33 0
BBX 37 46 0 0
BITMAP
0000070000
00000F8000
00000F8000
00000F8000
0000070000
0000000000
0000000000
0000000000
0000000000
0000000000
001FFFFFF0
001FFFFFE0
001FC00FE0
003F001FC0
003E001F80
0038003F00
0078007E00
007000FC00
006001FC00
00E003F800
00C003F000
008007E000
00000FC000
00001F8000
00003F8000
00007F0000
0000FE0000
0000FC0000
0001F80000
0003F00000
0007E00000
000FE00000
001FC00000
001F800200
003F000200
007E000600
00FC000E00
01FC000C00
03F8001C00
03F0003C00
07E0007C00
0FC000F800
1F8003F800
3F001FF800
7FFFFFF000
7FFFFFF000
ENDCHAR

STARTCHAR degree
ENCODING 176
SWIDTH 400 0
DWIDTH 20 0
BBX 17 15 5 19
BITMAP
03E000
0FF800
1FFC00
3C1E00
380E00
700700
700700
700700
700700
780700
380E00
3E1E00
1FFC00
0FF800
03E000
ENDCHAR

STARTCHAR aogonek
ENCODING 177
SWIDTH 574 0
DWIDTH 29 0
BBX 30 33 0 -9
BITMAP
000F8060
003FE1C0
00F873C0
01E03BC0
03C01B80
07C00F80
07800F80
0F000F80
1F000F00
1F000F00
1E000F00
3E000E00
3E001E00
3E001E00
3C001E00
3C003C00
3C003C10
3C003C30
3C007830
1E00F860
1E00F8C0
0F01B9C0
0F873F80
03FE3F00
00F82C00
00006000
00006000
0000E000
0000F000
0000F000
00007C00
00007FF0
00001FC0
ENDCHAR

STARTCHAR ogonek
ENCODING 178
SWIDTH 333 0
DWIDTH 17 0
BBX 15 10 0 -9
BITMAP
1800
3000
3000
7000
7000
7800
7C00
3E08
1FF8
0FE0
ENDCHAR

STARTCHAR lslash
ENCODING 179
SWIDTH 333 0
DWIDTH 17 0
BBX 18 38 1 -1
BITMAP
003E00
03FE00
007E00
003C00
003C00
003C00
003C00
007800
007800
007800
00F000
00F000
00F180
00F380
01EE00
01FC00
01F000
03C000
0FC000
3FC000
33C000
078000
078000
078000
070000
0F0000
0F0000
0F0000
1E0000
1E0800
1E0800
1E1800
3C3000
3C3000
3C6000
3CC000
1F8000
1F0000
ENDCHAR

STARTCHAR acute
ENCODING 180
SWIDTH 333 0
DWIDTH 17 0
BBX 14 9 7 27
BITMAP
0070
00F0
01F0
03F0
03E0
0780
0E00
1C00
3000
ENDCHAR

STARTCHAR lcaron
ENCODING 181
SWIDTH 380 0
DWIDTH 19 0
BBX 23 38 2 -1
BITMAP
007E78
07FCFC
007CFC
007C7C
007818
007818
007830
00F060
00F1C0
00F300
00F000
01E000
01E000
01E000
03C000
03C000
03C000
03C000
078000
078000
078000
0F0000
0F0000
0F0000
0F0000
1E0000
1E0000
1E0000
3C0000
3C1000
3C1800
3C3000
782000
786000
78C000
798000
3F0000
1E0000
ENDCHAR

STARTCHAR sacute
ENCODING 182
SWIDTH 444 0
DWIDTH 22 0
BBX 25 37 -1 -1
BITMAP
00001E00
00001E00
00003E00
00007C00
0000F800
0001E000
0003C000
00070000
00040000
00000000
00000000
00000000
000F8000
003FF000
00E07800
01C03800
03807C00
03807C00
03807C00
07807800
07C00000
07E00000
03FC0000
01FF8000
00FFC000
003FE000
0007F000
0001F000
1E00F000
3F00F000
3F00F000
3E00F000
3C00E000
1C01C000
1E038000
07FF0000
01F80000
ENDCHAR

STARTCHAR caron
ENCODING 183
SWIDTH 333 0
DWIDTH 17 0
BBX 18 8 3 27
BITMAP
300300
180600
0E1C00
0F7800
07F000
03E000
03C000
018000
ENDCHAR

STARTCHAR commaaccent
ENCODING 184
SWIDTH 333 0
DWIDTH 17 0
BBX 8 7 4 -10
BITMAP
3C
3E
3E
0E
0C
18
70
ENDCHAR

STARTCHAR scaron
ENCODING 185
SWIDTH 444 0
DWIDTH 22 0
BBX 25 37 -1 -1
BITMAP
00400100
00600600
00301C00
00183800
001CF000
000FE000
000FC000
00078000
00030000
00000000
00000000
00000000
000F8000
003FF000
00E07800
01C03800
03807C00
03807C00
03807C00
07807800
07C00000
07E00000
03FC0000
01FF8000
00FFC000
003FE000
0007F000
0001F000
1E00F000
3F00F000
3F00F000
3E00F000
3C00E000
1C01C000
1E038000
07FF0000
01F80000
ENDCHAR

STARTCHAR scommaaccent
ENCODING 186
SWIDTH 444 0
DWIDTH 22 0
BBX 23 34 -1 -10
BITMAP
001F80
007FE0
00E0F0
018078
038078
0300F8
0700F8
070070
078000
07E000
07FC00
03FF00
01FFC0
003FE0
0007F0
0001F0
1E00F0
3E00F0
3E00F0
3E00E0
3C01E0
3C01C0
1E0780
0FFE00
01F000
000000
000000
00E000
01F000
01F000
007000
006000
00C000
038000
ENDCHAR

STARTCHAR tcaron
ENCODING 187
SWIDTH 427 0
DWIDTH 21 0
BBX 24 38 3 -1
BITMAP
00003C
00003C
00007E
00003E
00001C
00000C
00F018
00F030
00F0E0
01E180
01E000
01E000
01C000
03C000
3FFC00
7FFC00
038000
078000
078000
078000
0F0000
0F0000
0F0000
0E0000
1E0000
1E0000
1E0000
3C0000
3C0000
3C0800
3C0800
781800
783000
783000
786000
7DC000
3F8000
1E0000
ENDCHAR

STARTCHAR zacute
ENCODING 188
SWIDTH 463 0
DWIDTH 23 0
BBX 26 38 -1 -1
BITMAP
00000600
00000F00
00001F00
00003F00
00007E00
00007800
0000E000
0001C000
00030000
00000000
00000000
00000000
00000000
007F0100
00FFC300
01FFFF00
038FFE00
0600FE00
04000C00
0C001800
00003800
00007000
0001E000
00038000
000F0000
003E0000
00780000
01F00000
03C00000
07000000
0E000600
0C000400
1FF00C00
3FFE1800
37FFF000
30FFE000
703FC000
200F8000
ENDCHAR

STARTCHAR hungarumlaut
ENCODING 189
SWIDTH 333 0
DWIDTH 17 0
BBX 23 9 3 27
BITMAP
007038
00F87C
01F0F8
01F0F8
03E1F0
0783C0
0E0700
1C0E00
301800
ENDCHAR

STARTCHAR zcaron
ENCODING 190
SWIDTH 463 0
DWIDTH 23 0
BBX 26 37 -1 -1
BITMAP
00200100
00300600
00181C00
000E3800
000FF000
0007E000
0007C000
00038000
00000000
00000000
00000000
00000000
007F0100
00FFC300
01FFFF00
038FFE00
0600FE00
04000C00
0C001800
00003800
00007000
0001E000
00038000
000F0000
003E0000
00780000
01F00000
03C00000
07000000
0E000600
0C000400
1FF00C00
3FFE1800
37FFF000
30FFE000
703FC000
200F8000
ENDCHAR

STARTCHAR zdotaccent
ENCODING 191
SWIDTH 463 0
DWIDTH 23 0
BBX 26 35 -1 -1
BITMAP
0000E000
0001F000
0001F000
0001F000
0000E000
00000000
00000000
00000000
00000000
00000000
003F0180
00FFC180
01FFFF00
038FFF00
0300FA00
06000600
04000C00
00001800
00007000
0000E000
0003C000
000F8000
001E0000
007C0000
00F00000
01C00000
03800000
06000200
0C000600
1FF80C00
1FFE1C00
37FFF800
30FFF000
303FE000
30078000
ENDCHAR

STARTCHAR Racute
ENCODING 192
SWIDTH 741 0
DWIDTH 37 0
BBX 39 50 -1 -1
BITMAP
0000000800
0000001C00
0000003E00
0000007C00
000000F800
000001F000
000003C000
0000038000
0000060000
0000080000
0000000000
0000000000
0000000000
007FFFFC00
007FFFFF80
0003F807E0
0001F001F0
0001F000F8
0003E000F8
0003E000FC
0003E000FC
0007E000FC
0007C000FC
0007C000F8
0007C001F8
000FC001F8
000F8003F0
000F8007C0
000F801F80
001FFFFC00
001FFF8000
001F01E000
003F007000
003E007800
003E007C00
003E003C00
007E007C00
007C007C00
007C007C00
007C007C00
00FC007C00
00F8007C00
00F8007C00
01F8007C18
01F0007E10
01F0007E30
03F8007E60
3FFFC03FC0
7FFFC03F80
0000000F00
ENDCHAR

STARTCHAR Aacute
ENCODING 193
SWIDTH 704 0
DWIDTH 35 0
BBX 40 49 -4 0
BITMAP
0000000060
00000000F0
00000001F0
00000003F0
00000003E0
0000000780
0000000F00
0000001C00
0000003000
0000002000
0000000000
0000000000
0000000000
0000001C00
0000001C00
0000003C00
0000007C00
0000007C00
000000FC00
000001FC00
000001FE00
000003FE00
0000073E00
0000063E00
00000E3E00
00000C3E00
0000183E00
0000383F00
0000303F00
0000601F00
0000E01F00
0000C01F00
0001C01F00
0003801F00
0003001F80
0007FFFF80
000FFFFF80
000C000F80
001C000F80
0018000F80
0030000F80
0070000F80
0060000FC0
00E00007C0
01E00007C0
03E00007C0
07E0000FE0
3FFE00FFFE
3FFE00FFFC
ENDCHAR

STARTCHAR Acircumflex
ENCODING 194
SWIDTH 704 0
DWIDTH 35 0
BBX 40 48 -4 0
BITMAP
0000000C00
0000001E00
0000003F00
0000007F00
000000F780
000001C180
00000300C0
0000060060
0000000000
0000000000
0000000000
0000000000
0000001C00
0000001C00
0000003C00
0000007C00
0000007C00
000000FC00
000001FC00
000001FE00
000003FE00
0000073E00
0000063E00
00000E3E00
00000C3E00
0000183E00
0000383F00
0000303F00
0000601F00
0000E01F00
0000C01F00
0001C01F00
0003801F00
0003001F80
0007FFFF80
000FFFFF80
000C000F80
001C000F80
0018000F80
0030000F80
0070000F80
0060000FC0
00E00007C0
01E00007C0
03E00007C0
07E0000FE0
3FFE00FFFE
3FFE00FFFC
ENDCHAR

STARTCHAR Abreve
ENCODING 195
SWIDTH 704 0
DWIDTH 35 0
BBX 40 47 -4 0
BITMAP
0000018020
0000018060
0000018060
000001C1C0
000000FFC0
000000FF80
0000007F00
0000001C00
0000000000
0000000000
0000000000
0000001C00
0000001C00
0000003C00
0000007C00
0000007C00
000000FC00
000001FC00
000001FE00
000003FE00
0000073E00
0000063E00
00000E3E00
00000C3E00
0000183E00
0000383F00
0000303F00
0000601F00
0000E01F00
0000C01F00
0001C01F00
0003801F00
0003001F80
0007FFFF80
0007FFFF80
000C000F80
001C000F80
0018000F80
0030000F80
0070000F80
0060000FC0
00E00007C0
01E00007C0
03E00007C0
07E0000FE0
3FFE00FFFE
3FFE00FFFC
ENDCHAR

STARTCHAR Adieresis
ENCODING 196
SWIDTH 704 0
DWIDTH 35 0
BBX 40 46 -3 0
BITMAP
00000380E0
000007C1F0
000007C1F0
000007C1F0
00000380E0
0000000000
0000000000
0000000000
0000000000
0000000000
0000001800
0000003800
0000007800
0000007800
000000FC00
000001FC00
000001FC00
0000037C00
0000077C00
0000067C00
00000E7C00
00001C7E00
0000187E00
0000387E00
0000303E00
0000603E00
0000E03E00
0000C03E00
0001803F00
0003803F00
0003003F00
0006001F00
000FFFFF00
000FFFFF00
001C001F00
0038001F80
0030001F80
0070000F80
0060000F80
00C0000F80
01C0000F80
03C0000F80
07C0000FC0
0FE0000FC0
7FFC01FFFC
7FFC01FFFC
ENDCHAR

STARTCHAR Lacute
ENCODING 197
SWIDTH 667 0
DWIDTH 33 0
BBX 34 49 0 0
BITMAP
0000002000
000000F000
000001F000
000003F000
000003E000
0000078000
00000F0000
00001C0000
0000300000
0000200000
0000000000
0000000000
0000000000
00FFFF8000
00FFFF8000
0007F00000
0003E00000
0007E00000
0007C00000
0007C00000
0007C00000
000FC00000
000F800000
000F800000
000F800000
001F800000
001F000000
001F000000
001F000000
003E000000
003E000000
003E000000
007E000000
007C000000
007C000000
007C000000
00FC000000
00F8000100
00F8000300
00F8000700
01F8000600
01F0000E00
01F0001E00
03F0003E00
03E0007C00
03E000FC00
07F003FC00
7FFFFFF800
7FFFFFF800
ENDCHAR

STARTCHAR Cacute
ENCODING 198
SWIDTH 722 0
DWIDTH 36 0
BBX 36 50 4 -1
BITMAP
0000003000
0000007800
000000F800
000001F000
000003F000
000007C000
0000070000
00000E0000
0000180000
0000200000
0000000000
0000000000
00003F0000
0001FFE000
0007C070C0
001F0039C0
003E001FC0
007C000FC0
00F8000780
01F0000780
03E0000780
07E0000380
07C0000380
0FC0000300
0F80000300
1F80000300
1F80000300
3F00000000
3F00000000
3F00000000
3F00000000
3E00000000
7E00000000
7E00000000
7E00000000
7E00000000
7E00000000
7E00000000
7E00000000
3E00000C00
3E00000C00
3F00001800
1F00001800
1F00003000
0F80006000
07C000C000
03E0038000
01F80F0000
007FFC0000
000FF00000
ENDCHAR

STARTCHAR Ccedilla
ENCODING 199
SWIDTH 722 0
DWIDTH 36 0
BBX 36 47 4 -10
BITMAP
00003F0000
0001FFE000
0007C070C0
001F0039C0
003E001FC0
007C000FC0
00F8000780
01F0000780
03E0000780
07E0000380
07C0000380
0FC0000300
0F80000300
1F80000300
1F80000300
3F00000000
3F00000000
3F00000000
3F00000000
3E00000000
7E00000000
7E00000000
7E00000000
7E00000000
7E00000000
7E00000000
7E00000400
3E00000C00
3E00000C00
3F00001800
1F00001800
1F00003000
0F80006000
07C000C000
03E0038000
01F80F0000
007FFC0000
000FF00000
0003000000
000FC00000
0007C00000
0003C00000
0003C00000
0007C00000
001F800000
01FE000000
01E0000000
ENDCHAR

STARTCHAR Ccaron
ENCODING 200
SWIDTH 722 0
DWIDTH 36 0
BBX 36 49 4 -1
BITMAP
0000800400
0000C01800
0000603000
000038E000
00003FC000
00001F8000
00001F0000
00000E0000
0000000000
0000000000
0000000000
00003F0000
0001FFE000
0007C070C0
001F0039C0
003E001FC0
007C000FC0
00F8000780
01F0000780
03E0000780
07E0000380
07C0000380
0FC0000300
0F80000300
1F80000300
1F80000300
3F00000000
3F00000000
3F00000000
3F00000000
3E00000000
7E00000000
7E00000000
7E00000000
7E00000000
7E00000000
7E00000000
7E00000000
3E00000C00
3E00000C00
3F00001800
1F00001800
1F00003000
0F80006000
07C000C000
03E0038000
01F80F0000
007FFC0000
000FF00000
ENDCHAR

STARTCHAR Eacute
ENCODING 201
SWIDTH 722 0
DWIDTH 36 0
BBX 40 49 -1 0
BITMAP
0000000400
0000001E00
0000001E00
0000003E00
0000007C00
000000F800
000001E000
0000038000
0000070000
0000040000
0000000000
0000000000
0000000000
003FFFFFFC
007FFFFFFC
0003F801FC
0001F0007C
0001F00038
0003F00038
0003E00038
0003E00038
0003E00030
0007C00030
0007C01830
0007C03000
000FC03000
000F807000
000F80E000
000F81E000
001FFFE000
001FFFE000
001F07C000
001F03C000
003E01C000
003E01C000
003E018000
007E018060
007C018060
007C0180E0
007C0000C0
00FC0001C0
00F80001C0
00F8000380
00F8000780
01F8000F80
01F0003F00
03F800FF00
3FFFFFFF00
3FFFFFFF00
ENDCHAR

STARTCHAR Eogonek
ENCODING 202
SWIDTH 722 0
DWIDTH 36 0
BBX 40 45 -1 -9
BITMAP
007FFFFFFC
007FFFFFFC
0003F801FC
0001F00078
0003F00078
0003E00038
0003E00038
0003E00030
0007C00030
0007C00030
0007C03030
000FC03000
000F803000
000F806000
000F80E000
001F83E000
001FFFE000
001FFFC000
001F07C000
003E03C000
003E03C000
003E018000
003E018000
007C018060
007C018060
007C0300C0
00FC0000C0
00F80001C0
00F8000380
00F8000380
01F8000780
01F0000F00
01F0003F00
03F800FF00
3FFFFFFF00
3FFFFFFE00
0000008000
0000018000
0000038000
0000038000
000003C000
000003E000
000001F040
000000FFC0
0000007F00
ENDCHAR

STARTCHAR Edieresis
ENCODING 203
SWIDTH 722 0
DWIDTH 36 0
BBX 40 46 -1 0
BITMAP
0000380E00
00007C1F00
00007C1F00
00007C1F00
0000380E00
0000000000
0000000000
0000000000
0000000000
0000000000
003FFFFFFE
007FFFFFFC
0003F800FC
0001F0007C
0001F0003C
0003F00038
0003E00018
0003E00018
0007E00018
0007C00010
0007C01830
0007C01800
000FC03000
000F807000
000F80F000
000F81E000
001FFFE000
001FFFE000
001F07E000
001F03C000
003E01C000
003E01C000
003E01C000
007E018020
007C018060
007C018060
007C0000E0
00FC0000C0
00F80001C0
00F80003C0
00F8000780
01F8000F80
01F0001F80
03F800FF00
3FFFFFFF00
3FFFFFFF00
ENDCHAR

STARTCHAR Ecaron
ENCODING 204
SWIDTH 722 0
DWIDTH 36 0
BBX 40 48 -1 0
BITMAP
0000100040
00000C0180
0000060700
0000070E00
000003BC00
000003F800
000001F000
000000E000
0000000000
0000000000
0000000000
0000000000
003FFFFFFC
007FFFFFFC
0003F801FC
0001F0007C
0001F00038
0003F00038
0003E00038
0003E00038
0003E00030
0007C00030
0007C01830
0007C03000
000FC03000
000F807000
000F80E000
000F81E000
001FFFE000
001FFFE000
001F07C000
001F03C000
003E01C000
003E01C000
003E018000
007E018060
007C018060
007C0180E0
007C0000C0
00FC0001C0
00F80001C0
00F8000380
00F8000780
01F8000F80
01F0003F00
03F800FF00
3FFFFFFF00
3FFFFFFF00
ENDCHAR

STARTCHAR Iacute
ENCODING 205
SWIDTH 407 0
DWIDTH 20 0
BBX 27 49 -1 0
BITMAP
00000200
00000700
00000F80
00001F00
00003E00
00007C00
00007000
0000E000
00018000
00020000
00000000
00000000
00000000
007FFFC0
007FFFC0
0001F800
0001F000
0001F000
0001F000
0003E000
0003E000
0003E000
0007E000
0007C000
0007C000
0007C000
000FC000
000F8000
000F8000
000F8000
001F0000
001F0000
001F0000
001F0000
003E0000
003E0000
003E0000
007E0000
007C0000
007C0000
007C0000
00FC0000
00F80000
00F80000
00F80000
01F80000
01F80000
3FFFC000
7FFFC000
ENDCHAR

STARTCHAR Icircumflex
ENCODING 206
SWIDTH 407 0
DWIDTH 20 0
BBX 27 48 -1 0
BITMAP
00003800
00007800
0000FC00
0001FC00
0003CE00
00070700
000E0300
00180180
00000000
00000000
00000000
00000000
007FFFC0
007FFFC0
0001F800
0001F000
0001F000
0001F000
0003E000
0003E000
0003E000
0007E000
0007C000
0007C000
0007C000
000FC000
000F8000
000F8000
000F8000
001F0000
001F0000
001F0000
001F0000
003E0000
003E0000
003E0000
007E0000
007C0000
007C0000
007C0000
00FC0000
00F80000
00F80000
00F80000
01F80000
01F80000
3FFFC000
7FFFC000
ENDCHAR

STARTCHAR Dcaron
ENCODING 207
SWIDTH 778 0
DWIDTH 39 0
BBX 42 48 -2 0
BITMAP
000020018000
000010030000
00001C0E0000
00000E3C0000
00000F780000
000007F00000
000003E00000
000003C00000
000000000000
000000000000
000000000000
000000000000
003FFFFC0000
003FFFFFC000
0001F803E000
0001F800F800
0001F0007C00
0001F0003C00
0003F0003E00
0003E0001E00
0003E0001F00
0003E0001F00
0007E0001F00
0007C0001F80
0007C0001F80
0007C0001F80
000FC0001F80
000F80001F80
000F80001F80
001F80001F80
001F00003F00
001F00003F00
001F00003F00
003F00003F00
003E00007E00
003E00007E00
003E00007E00
007E0000FC00
007C0000FC00
007C0001F800
007C0003F000
00F80003E000
00F80007C000
00F8000F8000
01F8003F0000
01F800FC0000
3FFFFFF00000
3FFFFF000000
ENDCHAR

STARTCHAR Dcroat
ENCODING 208
SWIDTH 778 0
DWIDTH 39 0
BBX 42 36 -2 0
BITMAP
003FFFFC0000
003FFFFFC000
0001F803E000
0001F800F800
0001F0007C00
0001F0003C00
0003F0003E00
0003E0001E00
0003E0001F00
0003E0001F00
0007E0001F00
0007C0001F80
0007C0001F80
0007C0001F80
000F80001F80
000F80001F80
000F80001F80
03FFFE001F80
03FFFE003F00
001F00003F00
001F00003F00
003F00003F00
003E00007E00
003E00007E00
003E00007E00
007C0000FC00
007C0000FC00
007C0001F800
00FC0003F000
00F80003E000
00F80007C000
00F8000F8000
01F8003F0000
01F800FC0000
3FFFFFF00000
3FFFFF000000
ENDCHAR

STARTCHAR Nacute
ENCODING 209
SWIDTH 815 0
DWIDTH 41 0
BBX 48 49 -1 0
BITMAP
000000004000
00000001E000
00000003E000
00000007E000
00000007C000
0000000F0000
0000001E0000
000000380000
000000600000
000000C00000
000000000000
000000000000
000000000000
003FF0007FFC
007FF0007FFC
0007F80007E0
0003F80003C0
0003FC000380
00037C000380
00037E000300
00033E000300
00073F000700
00061F000700
00061F800600
00060F800600
000E0FC00E00
000C0FC00C00
000C07C00C00
001C07E00C00
001C03E01C00
001803F01800
001801F01800
003801F81800
003000F83800
003000FC3000
0070007C3000
0070007E7000
0060007E6000
0060003E6000
00E0003F6000
00E0001FE000
00C0001FC000
00C0000FC000
01C0000FC000
01C00007C000
03C000078000
07F000038000
3FFE00038000
3FFE00010000
ENDCHAR

STARTCHAR Ncaron
ENCODING 210
SWIDTH 815 0
DWIDTH 41 0
BBX 48 48 -1 0
BITMAP
000001000800
000000801800
000000E07000
00000071E000
0000007BC000
0000003F8000
0000001F0000
0000001E0000
000000000000
000000000000
000000000000
000000000000
003FF0007FFC
007FF0007FFC
0007F80007E0
0003F80003C0
0003FC000380
00037C000380
00037E000300
00033E000300
00073F000700
00061F000700
00061F800600
00060F800600
000E0FC00E00
000C0FC00C00
000C07C00C00
001C07E00C00
001C03E01C00
001803F01800
001801F01800
003801F81800
003000F83800
003000FC3000
0070007C3000
0070007E7000
0060007E6000
0060003E6000
00E0003F6000
00E0001FE000
00C0001FC000
00C0000FC000
01C0000FC000
01C00007C000
03C000078000
07F000038000
3FFE00038000
3FFE00010000
ENDCHAR

STARTCHAR Oacute
ENCODING 211
SWIDTH 778 0
DWIDTH 39 0
BBX 37 50 3 -1
BITMAP
0000001000
0000003800
0000007800
000000F800
000001F000
000003E000
0000078000
0000070000
00000C0000
0000100000
0000000000
0000000000
00001FC000
0001FFF000
0007E03C00
000F801E00
003E000F00
007C000780
00F80003C0
01F00003C0
03F00003E0
03E00003E0
07E00003E0
0FC00003F0
0FC00003F0
0F800003F0
1F800003F0
1F800003F0
3F000003F0
3F000003F0
3F000003E0
3F000007E0
7E000007E0
7E000007E0
7E00000FC0
7E00000FC0
7E00000FC0
7E00001F80
3E00001F80
3E00003F00
3E00003E00
3E00007E00
1E00007C00
1F0000F800
0F0001F000
078003E000
03C0078000
01E03F0000
007FF80000
001FC00000
ENDCHAR

STARTCHAR Ocircumflex
ENCODING 212
SWIDTH 778 0
DWIDTH 39 0
BBX 37 49 3 -1
BITMAP
000001C000
000003C000
000007E000
00000FF000
00001E7000
00003C3800
0000301800
0000400400
0000000000
0000000000
0000000000
00001FC000
0001FFF000
0007E03C00
000F801E00
003E000F00
007C000780
00F80003C0
01F00003C0
03F00003E0
03E00003E0
07E00003E0
0FC00003F0
0FC00003F0
0F800003F0
1F800003F0
1F800003F0
3F000003F0
3F000003F0
3F000003E0
3F000007E0
7E000007E0
7E000007E0
7E00000FC0
7E00000FC0
7E00000FC0
7E00001F80
3E00001F80
3E00003F00
3E00003E00
3E00007E00
1E00007C00
1F0000F800
0F0001F000
078003E000
03C0078000
01E03F0000
007FF80000
001FC00000
ENDCHAR

STARTCHAR Ohungarumlaut
ENCODING 213
SWIDTH 778 0
DWIDTH 39 0
BBX 37 50 3 -1
BITMAP
0000010080
00000383C0
00000787C0
00000F87C0
00001F0F80
00003E1F00
0000783C00
0000E07000
0000C0E000
0001008000
0000000000
0000000000
00001FC000
0001FFF000
0007E03C00
000F801E00
003E000F00
007C000780
00F80003C0
01F00003C0
03F00003E0
03E00003E0
07E00003E0
0FC00003F0
0FC00003F0
0F800003F0
1F800003F0
1F800003F0
3F000003F0
3F000003F0
3F000003E0
3F000007E0
7E000007E0
7E000007E0
7E00000FC0
7E00000FC0
7E00000FC0
7E00001F80
3E00001F80
3E00003F00
3E00003E00
3E00007E00
1E00007C00
1F0000F800
0F0001F000
078003E000
03C0078000
01E03F0000
007FF80000
001FC00000
ENDCHAR

STARTCHAR Odieresis
ENCODING 214
SWIDTH 778 0
DWIDTH 39 0
BBX 37 47 3 -1
BITMAP
0000380E00
00007C1F00
00007C1F00
00007C1F00
0000380E00
0000000000
0000000000
0000000000
0000000000
00003FC000
0001FFF000
0007E07C00
000F001E00
003E000F00
007C000780
00F80007C0
01F00003C0
03E00003E0
03E00003E0
07C00003E0
0FC00003F0
0FC00003F0
1F800003F0
1F800003F0
1F000003F0
3F000003F0
3F000003F0
3F000007E0
3E000007E0
7E000007E0
7E000007E0
7E00000FC0
7E00000FC0
7E00000FC0
7E00001F80
3E00001F80
3E00003F00
3E00003E00
3E00007E00
1E0000FC00
1F0000F800
0F0001F000
078003C000
03C00F8000
01E03E0000
007FF80000
001FC00000
ENDCHAR

STARTCHAR multiply
ENCODING 215
SWIDTH 606 0
DWIDTH 30 0
BBX 27 24 4 5
BITMAP
10000180
38000380
3C000780
1E000F00
0F001E00
07803C00
03C07800
01E0F000
00F1E000
007BC000
003F8000
001F0000
001F0000
003F8000
007BC000
00F1E000
01E0F000
03C07800
07803C00
0F001E00
1E000F00
3C000780
380003C0
30000180
ENDCHAR

STARTCHAR Rcaron
ENCODING 216
SWIDTH 741 0
DWIDTH 37 0
BBX 39 49 -1 -1
BITMAP
0000100080
0000180300
00000C0600
00000E1C00
000007F800
000003F000
000003E000
000001E000
0000000000
0000000000
0000000000
0000000000
007FFFFC00
007FFFFF80
0003F807E0
0001F001F0
0001F000F8
0003E000F8
0003E000FC
0003E000FC
0007E000FC
0007C000FC
0007C000F8
0007C001F8
000FC001F8
000F8003F0
000F8007C0
000F801F80
001FFFFC00
001FFF8000
001F01E000
003F007000
003E007800
003E007C00
003E003C00
007E007C00
007C007C00
007C007C00
007C007C00
00FC007C00
00F8007C00
00F8007C00
01F8007C18
01F0007E10
01F0007E30
03F8007E60
3FFFC03FC0
7FFFC03F80
0000000F00
ENDCHAR

STARTCHAR Uring
ENCODING 217
SWIDTH 815 0
DWIDTH 41 0
BBX 41 49 6 -1
BITMAP
000007800000
00000FE00000
000018600000
000030300000
000030300000
000030300000
000030300000
000018600000
00000FE00000
000007800000
000000000000
000000000000
3FFFC03FFE00
7FFFC03FFE00
03F80007F000
01F00003E000
03F00001C000
03F00001C000
03E000018000
03E000018000
07E000018000
07C000030000
07C000030000
07C000030000
0FC000030000
0F8000060000
0F8000060000
1F8000060000
1F8000060000
1F00000C0000
1F00000C0000
3F00000C0000
3E00000C0000
3E0000180000
3E0000180000
7E0000180000
7C0000180000
7C0000300000
7C0000300000
7C0000300000
7C0000600000
7C0000E00000
3E0000C00000
3E0001C00000
1F0003800000
1F800F000000
0FE03E000000
03FFF8000000
007FC0000000
ENDCHAR

STARTCHAR Uacute
ENCODING 218
SWIDTH 815 0
DWIDTH 41 0
BBX 41 50 6 -1
BITMAP
000000100000
000000780000
000000780000
000000F80000
000001F00000
000003E00000
000007800000
00000E000000
00001C000000
000010000000
000000000000
000000000000
000000000000
3FFFC03FFE00
7FFF803FFE00
03F80007F000
01F00003E000
03F00001C000
03E00001C000
03E000018000
03E000018000
07E000038000
07C000030000
07C000030000
07C000030000
0FC000030000
0F8000060000
0F8000060000
1F8000060000
1F0000060000
1F00000C0000
1F00000C0000
3F00000C0000
3E00000C0000
3E0000180000
3E0000180000
7E0000180000
7C0000180000
7C0000300000
7C0000300000
7C0000700000
7C0000600000
7C0000E00000
3E0000C00000
3E0001800000
1F0003800000
1F800F000000
0FE03C000000
03FFF8000000
007FC0000000
ENDCHAR

STARTCHAR Uhungarumlaut
ENCODING 219
SWIDTH 815 0
DWIDTH 41 0
BBX 41 50 6 -1
BITMAP
000000402000
000001E0F000
000003E1F000
000007E3F000
000007C3E000
00000F078000
00001E0F0000
0000381C0000
000060300000
000040200000
000000000000
000000000000
000000000000
3FFFC03FFE00
7FFF803FFE00
03F80007F000
01F00003E000
03F00001C000
03E00001C000
03E000018000
03E000018000
07E000038000
07C000030000
07C000030000
07C000030000
0FC000030000
0F8000060000
0F8000060000
1F8000060000
1F0000060000
1F00000C0000
1F00000C0000
3F00000C0000
3E00000C0000
3E0000180000
3E0000180000
7E0000180000
7C0000180000
7C0000300000
7C0000300000
7C0000700000
7C0000600000
7C0000E00000
3E0000C00000
3E0001800000
1F0003800000
1F800F000000
0FE03C000000
03FFF8000000
007FC0000000
ENDCHAR

STARTCHAR Udieresis
ENCODING 220
SWIDTH 815 0
DWIDTH 41 0
BBX 41 47 6 -1
BITMAP
0000380E0000
00007C1F0000
00007C1F0000
00007C1F0000
0000380E0000
000000000000
000000000000
000000000000
000000000000
000000000000
3FFFC03FFF00
7FFF803FFE00
03F80003F000
01F00001E000
03F00001C000
03E00001C000
03E00001C000
03E000018000
07E000018000
07C000018000
07C000038000
07C000030000
0FC000030000
0F8000030000
0F8000070000
1F8000060000
1F0000060000
1F0000060000
1F00000E0000
3F00000C0000
3E00000C0000
3E00000C0000
3E00001C0000
7E0000180000
7C0000180000
7C0000180000
7C0000300000
7C0000300000
7C0000700000
7C0000600000
3E0000C00000
3E0001C00000
1F0003800000
1F800F000000
0FE03E000000
03FFF8000000
007FC0000000
ENDCHAR

STARTCHAR Yacute
ENCODING 221
SWIDTH 685 0
DWIDTH 34 0
BBX 36 49 5 0
BITMAP
0000008000
000003C000
000007C000
000007C000
00000F8000
00001F0000
00003C0000
0000700000
0000E00000
0000800000
0000000000
0000000000
0000000000
3FFF00FFE0
7FFF01FFC0
07E0003F00
07E0001E00
03E0001C00
03F0001800
01F0003000
01F0007000
01F800E000
00F801C000
00FC018000
007C030000
007C070000
007E0E0000
003E1C0000
003F180000
001F300000
001FF00000
000FE00000
000FC00000
000FC00000
000F800000
000F800000
000F800000
001F000000
001F000000
001F000000
003F000000
003E000000
003E000000
003E000000
007E000000
007C000000
00FE000000
1FFFF00000
1FFFE00000
ENDCHAR

STARTCHAR Tcommaaccent
ENCODING 222
SWIDTH 685 0
DWIDTH 34 0
BBX 38 46 2 -10
BITMAP
01FFFFFFF8
03FFFFFFF0
03F03F03F0
03C03E01F0
07803E00F0
07003E00E0
0F007C00E0
0E007C00E0
0C007C00E0
1C00FC00C0
1800F800C0
3000F800C0
3000F800C0
0001F80000
0001F00000
0001F00000
0001F00000
0003E00000
0003E00000
0003E00000
0007E00000
0007C00000
0007C00000
0007C00000
000FC00000
000F800000
000F800000
000F800000
001F000000
001F000000
001F000000
003F000000
003E000000
007F000000
0FFFF80000
1FFFF80000
0000000000
0000000000
0010000000
007C000000
007C000000
007C000000
001C000000
0018000000
0030000000
00C0000000
ENDCHAR

STARTCHAR germandbls
ENCODING 223
SWIDTH 556 0
DWIDTH 28 0
BBX 34 47 -4 -10
BITMAP
000003E000
00000FF800
00003C3C00
0000781E00
0000F00E00
0000F00F00
0001E00F00
0001C00F00
0003C00F00
0003800F00
0007801F00
0007801E00
000F003C00
000F007C00
000F00F000
000E03C000
001E0F0000
001E1F8000
001E01E000
003C00E000
003C007000
003C007000
003C007800
0078007800
0078007800
0078007800
00F000F800
00F000F800
00F000F800
00F000F000
01E381F000
01E3C1F000
01E7C3E000
03E787C000
03C70FC000
03C71F0000
03C3FE0000
0780F80000
0780000000
0F80000000
0F80000000
0F00000000
1F00000000
1F00000000
3E00000000
3E00000000
7000000000
ENDCHAR

STARTCHAR racute
ENCODING 224
SWIDTH 444 0
DWIDTH 22 0
BBX 24 37 1 0
BITMAP
000008
00001C
00003E
00007C
0000F8
0001F0
0003C0
000700
000600
000800
000000
000000
000000
07E1F0
1FE3F8
07E6F8
01CC78
01C8F8
01D078
01D020
03A000
03A000
03E000
07C000
07C000
078000
078000
0F8000
0F0000
0F0000
1E0000
1E0000
1E0000
1E0000
3C0000
3C0000
380000
ENDCHAR

STARTCHAR aacute
ENCODING 225
SWIDTH 574 0
DWIDTH 29 0
BBX 30 38 0 -1
BITMAP
00000080
000003C0
000003C0
000007C0
00000F80
00001F00
00003C00
00007000
0000E000
00008000
00000000
00000000
00000000
000F8060
003FE1C0
00F873C0
01E03BC0
03C01B80
07C00F80
07800F80
0F000F80
1F000F00
1F000F00
1E000F00
3E000E00
3E001E00
3E001E00
3C001E00
3C003C00
3C003C10
3C003C30
3C007830
1E00F860
1E00F8C0
0F01B9C0
0F873F80
03FE3F00
01F80C00
ENDCHAR

STARTCHAR acircumflex
ENCODING 226
SWIDTH 574 0
DWIDTH 29 0
BBX 30 37 0 -1
BITMAP
00003000
00007800
0000FC00
0001FC00
0003DE00
00070600
000E0300
00180180
00000000
00000000
00000000
00000000
000F8060
003FE1C0
00F873C0
01E03BC0
03C01B80
07C00F80
07800F80
0F000F80
1F000F00
1F000F00
1E000F00
3E000E00
3E001E00
3E001E00
3C001E00
3C003C00
3C003C10
3C003C30
3C007830
1E00F860
1E00F8C0
0F01B9C0
0F873F80
03FE3F00
01F80C00
ENDCHAR

STARTCHAR abreve
ENCODING 227
SWIDTH 574 0
DWIDTH 29 0
BBX 30 37 0 -1
BITMAP
00020040
000200C0
00020080
00070180
00038780
0003FF00
0003FE00
0001FC00
00007000
00000000
00000000
00000000
000F8060
003FE1C0
00F873C0
01E03BC0
03C01B80
07C00F80
07800F80
0F000F80
1F000F00
1F000F00
1E000F00
3E000E00
3E001E00
3E001E00
3C001E00
3C003C00
3C003C10
3C003C30
3C007830
1E00F860
1E00F8C0
0F01B9C0
0F873F80
03FE3F00
01F80C00
ENDCHAR

STARTCHAR adieresis
ENCODING 228
SWIDTH 574 0
DWIDTH 29 0
BBX 30 35 0 -1
BITMAP
000701C0
000F83E0
000F83E0
000F83E0
000701C0
00000000
00000000
00000000
00000000
00000000
000F8060
003FE1E0
00F871C0
01E01BC0
03C01BC0
07C00FC0
07800F80
0F000F80
1F000F80
1F000F00
1E000F00
3E000F00
3E000E00
3E001E00
3C001E00
3C001E00
3C003C18
3C003C10
3C007C30
1E007860
1E00F860
0F01B8C0
0F873F80
03FE3F00
01F80C00
ENDCHAR

STARTCHAR lacute
ENCODING 229
SWIDTH 333 0
DWIDTH 17 0
BBX 21 50 2 -1
BITMAP
000040
0000F0
0001F0
0003E0
0007C0
000F80
000E00
001C00
003000
004000
000000
000000
007C00
07FC00
00FC00
007800
007800
007800
007800
00F000
00F000
00F000
01E000
01E000
01E000
01E000
03C000
03C000
03C000
078000
078000
078000
078000
0F0000
0F0000
0F0000
0E0000
1E0000
1E0000
1E0000
3C0000
3C1000
3C1000
3C3000
786000
786000
78C000
798000
3F0000
3E0000
ENDCHAR

STARTCHAR cacute
ENCODING 230
SWIDTH 444 0
DWIDTH 22 0
BBX 24 37 0 -1
BITMAP
00001C
00003E
00007C
0000FC
0001F0
0001E0
000380
000600
000C00
000000
000000
000000
000780
003FE0
007830
01E018
03C038
07C0F8
0780F8
0F00F8
0F0070
1E0000
1E0000
3E0000
3E0000
3C0000
3C0000
3C0000
3C0000
3C0000
3E0020
3E0060
1E00E0
1F01C0
0F8380
07FE00
01F800
ENDCHAR

STARTCHAR ccedilla
ENCODING 231
SWIDTH 444 0
DWIDTH 22 0
BBX 22 34 1 -10
BITMAP
000F00
003FC0
00F060
01E030
03C070
0781F0
0F01F0
0F01F0
1E00E0
1E0000
3E0000
3C0000
3C0000
7C0000
7C0000
7C0000
7C0000
7C0000
3C0040
3C0040
3E00C0
1E0380
0F8700
07FC00
01F000
00C000
01E000
03F000
00F000
00F000
01F000
07E000
3F8000
700000
ENDCHAR

STARTCHAR ccaron
ENCODING 232
SWIDTH 444 0
DWIDTH 22 0
BBX 24 36 0 -1
BITMAP
00400C
006018
003870
001DE0
001FC0
000F80
000F00
000700
000000
000000
000000
000780
003FE0
007830
01E018
03C038
07C0F8
0780F8
0F00F8
0F0070
1E0000
1E0000
3E0000
3E0000
3C0000
3C0000
3C0000
3C0000
3C0000
3E0020
3E0060
1E00E0
1F01C0
0F8380
07FE00
01F800
ENDCHAR

STARTCHAR eacute
ENCODING 233
SWIDTH 444 0
DWIDTH 22 0
BBX 24 37 0 -1
BITMAP
00001C
00003C
00007C
0000F8
0001F0
0003C0
000380
000600
000800
000000
000000
000000
0007C0
001FE0
0070F0
00E078
01C078
038078
078078
0F0078
0F00F0
1F01E0
1E03C0
1E0780
3E1E00
3FF800
3F8000
3C0000
3C0000
3C0000
3C0020
1E0060
1E00E0
0F01C0
0F8780
07FE00
01F800
ENDCHAR

STARTCHAR eogonek
ENCODING 234
SWIDTH 444 0
DWIDTH 22 0
BBX 23 33 0 -9
BITMAP
0007C0
003FE0
0070F0
00E078
03C078
038078
078078
0F00F8
0F00F0
1E01E0
1E03C0
3E0780
3E3E00
3DF000
3F8000
3C0000
3C0000
3C0000
3C0020
1C0060
1E00E0
0E01C0
0F8700
07FE00
01F800
00C000
00C000
01C000
01E000
01E000
00F800
007FE0
003F80
ENDCHAR

STARTCHAR edieresis
ENCODING 235
SWIDTH 444 0
DWIDTH 22 0
BBX 25 35 0 -1
BITMAP
00701C00
00F83E00
00F83E00
00F83E00
00701C00
00000000
00000000
00000000
00000000
00000000
0007C000
003FE000
0070F000
00E07800
03C07800
03807800
07807800
0F007800
0F00F000
1E01E000
1E03C000
1E078000
3E3E0000
3FF00000
3F800000
3C000000
3C000000
3C000000
3C002000
1C006000
1E00E000
0E01C000
0F870000
07FE0000
01F80000
ENDCHAR

STARTCHAR ecaron
ENCODING 236
SWIDTH 444 0
DWIDTH 22 0
BBX 24 37 0 -1
BITMAP
008002
00400C
006038
003870
001DE0
001FC0
000F80
000F00
000000
000000
000000
000000
0007C0
001FE0
0070F0
00E078
01C078
038078
078078
0F0078
0F00F0
1F01E0
1E03C0
1E0780
3E1E00
3FF800
3F8000
3C0000
3C0000
3C0000
3C0020
1E0060
1E00E0
0F01C0
0F8780
07FE00
01F800
ENDCHAR

STARTCHAR iacute
ENCODING 237
SWIDTH 333 0
DWIDTH 17 0
BBX 20 38 2 -1
BITMAP
000080
0003C0
0003C0
0007C0
000F80
001F00
003C00
007000
00E000
008000
000000
000000
000000
07C000
7FC000
07C000
07C000
078000
078000
078000
0F0000
0F0000
0F0000
0F0000
1E0000
1E0000
1E0000
1E0000
3C0000
3C0800
3C1800
383000
783000
786000
78C000
798000
3F0000
3E0000
ENDCHAR

STARTCHAR icircumflex
ENCODING 238
SWIDTH 333 0
DWIDTH 17 0
BBX 19 37 2 -1
BITMAP
003000
007800
00FC00
01FC00
03DE00
070600
0E0300
180180
000000
000000
000000
000000
07C000
7FC000
07C000
07C000
078000
078000
078000
0F0000
0F0000
0F0000
0F0000
1E0000
1E0000
1E0000
1E0000
3C0000
3C0800
3C1800
383000
783000
786000
78C000
798000
3F0000
3E0000
ENDCHAR

STARTCHAR dcaron
ENCODING 239
SWIDTH 655 0
DWIDTH 33 0
BBX 38 38 1 -1
BITMAP
0000007CF0
00000FF9F8
000000F9F8
00000078F8
000000F830
000000F030
000000F060
000000F0C0
000001E380
000001E000
000001E000
000001E000
000003C000
000F83C000
003FE3C000
00F8778000
01F03F8000
03E01F8000
07C01F8000
07800F0000
0F800F0000
0F000F0000
1F001E0000
1E001E0000
1E001E0000
3E001E0000
3E001C0000
3C003C0000
3C003C0000
3C00781800
3C00783000
3C00F83000
3E00F86000
1E01F0C000
1F03798000
0F8E7F8000
07FC3E0000
01F01C0000
ENDCHAR

STARTCHAR dcroat
ENCODING 240
SWIDTH 611 0
DWIDTH 31 0
BBX 34 38 0 -1
BITMAP
0000000C00
000007FC00
00000FF800
0000007800
0000007800
0000007800
000000F000
000000F000
0000FFFF00
0000FFFF00
000001E000
000001E000
000001E000
000F83C000
003FE3C000
00F873C000
01F01F8000
03E01F8000
03C00F8000
07800F8000
0F800F0000
0F000F0000
1F000F0000
1E000E0000
1E001E0000
3E001E0000
3E001E0000
3E003C0000
3C003C0000
3C003C1800
3C00781000
3C00F83000
3E00F86000
1E01F8C000
1F0379C000
0F8E3F8000
07FC3F0000
01F01C0000
ENDCHAR

STARTCHAR nacute
ENCODING 241
SWIDTH 611 0
DWIDTH 31 0
BBX 29 38 1 -1
BITMAP
00000100
00000380
000007C0
00000F80
00001F00
00003E00
00003800
00007000
0000C000
00010000
00000000
00000000
00000000
03E03800
1FE0FE00
03E3FE00
01E71F00
01CC0F00
03C80F00
03D00F00
03F00F00
03E00F00
07C01E00
07C01E00
07801E00
07803C00
0F803C00
0F003C00
0F007800
1E007830
1E007830
1E007860
1E00F060
3C00F0C0
3C00F180
3C00F300
38007E00
78003C00
ENDCHAR

STARTCHAR ncaron
ENCODING 242
SWIDTH 611 0
DWIDTH 31 0
BBX 29 37 1 -1
BITMAP
00100040
000C0180
00060700
00070E00
0003BC00
0003F800
0001F000
0000E000
00000000
00000000
00000000
00000000
03E03800
1FE0FE00
03E3FE00
01E71F00
01CC0F00
03C80F00
03D00F00
03F00F00
03E00F00
07C01E00
07C01E00
07801E00
07803C00
0F803C00
0F003C00
0F007800
1E007830
1E007830
1E007860
1E00F060
3C00F0C0
3C00F180
3C00F300
38007E00
78003C00
ENDCHAR

STARTCHAR oacute
ENCODING 243
SWIDTH 500 0
DWIDTH 25 0
BBX 26 37 -1 -1
BITMAP
00000700
00000F00
00001F00
00003E00
00007C00
0000F000
0001E000
00038000
00020000
00000000
00000000
00000000
000FC000
003FF000
00F87800
01E01C00
03C01E00
07C01E00
0F800F00
0F000F00
1F000F00
1F000F00
1E000F00
3E000F00
3E001F00
3E001F00
3C001F00
3C001E00
3C003E00
3C003C00
1C007C00
1E007800
0E00F000
0F01E000
0783C000
01FF0000
00780000
ENDCHAR

STARTCHAR ocircumflex
ENCODING 244
SWIDTH 500 0
DWIDTH 25 0
BBX 26 37 -1 -1
BITMAP
0000C000
0001E000
0003F000
0007F000
000F7800
001C1800
00380C00
00600600
00800200
00000000
00000000
00000000
000FC000
003FF000
00F87800
01E01C00
03C01E00
07C01E00
0F800F00
0F000F00
1F000F00
1F000F00
1E000F00
3E000F00
3E001F00
3E001F00
3C001F00
3C001E00
3C003E00
3C003C00
1C007C00
1E007800
0E00F000
0F01E000
0783C000
01FF0000
00780000
ENDCHAR

STARTCHAR ohungarumlaut
ENCODING 245
SWIDTH 500 0
DWIDTH 25 0
BBX 31 37 -1 -1
BITMAP
0000F078
0001F078
0001F0F8
0003E1F0
0007C3E0
000F0780
001C0E00
00381C00
00601000
00000000
00000000
00000000
000FC000
003FF000
00F87800
01E01C00
03C01E00
07C01E00
0F800F00
0F000F00
1F000F00
1F000F00
1E000F00
3E000F00
3E001F00
3E001F00
3C001F00
3C001E00
3C003E00
3C003C00
1C007C00
1E007800
0E00F000
0F01E000
0783C000
01FF0000
00780000
ENDCHAR

STARTCHAR odieresis
ENCODING 246
SWIDTH 500 0
DWIDTH 25 0
BBX 26 35 0 -1
BITMAP
00380E00
007C1F00
007C1F00
007C1F00
00380E00
00000000
00000000
00000000
00000000
00000000
000F8000
007FE000
00F0F000
01E03800
03C03C00
07803C00
0F001E00
0F001E00
1F001E00
1E001E00
1E001E00
3E001E00
3C003E00
3C003E00
3C003E00
3C003C00
3C007C00
3C007800
1C00F800
1C00F000
1E01E000
0E03C000
07078000
03FE0000
00780000
ENDCHAR

STARTCHAR divide
ENCODING 247
SWIDTH 606 0
DWIDTH 30 0
BBX 30 25 3 4
BITMAP
00070000
000F8000
000F8000
000F8000
00070000
00000000
00000000
00000000
00000000
00000000
00000000
7FFFFFF0
7FFFFFF0
7FFFFFF0
00000000
00000000
00000000
00000000
00000000
00000000
00070000
000F8000
000F8000
000F8000
00070000
ENDCHAR

STARTCHAR rcaron
ENCODING 248
SWIDTH 444 0
DWIDTH 22 0
BBX 24 36 1 0
BITMAP
008006
00600C
007038
003870
001DE0
001FC0
000F80
000700
000000
000000
000000
000000
07E1F0
1FE3F8
07E6F8
01CC78
01C8F8
01D078
01D020
03A000
03A000
03E000
07C000
07C000
078000
078000
0F8000
0F0000
0F0000
1E0000
1E0000
1E0000
1E0000
3C0000
3C0000
380000
ENDCHAR

STARTCHAR uring
ENCODING 249
SWIDTH 611 0
DWIDTH 31 0
BBX 29 37 2 -1
BITMAP
00007800
0000FE00
00018600
00030300
00030300
00030300
00030300
00018600
0001FE00
00007800
00000000
00000000
00F00000
1FF00380
0FE00780
03E00780
03E00700
03C00F00
03C00F00
03C00E00
07801E00
07801E00
07801E00
0F001C00
0F003C00
0F003C00
1E007800
1E007800
1E00F820
3C01F060
3C037060
3C06F0C0
3C0CF080
3E18F180
1FF0F300
1FE07E00
07803800
ENDCHAR

STARTCHAR uacute
ENCODING 250
SWIDTH 611 0
DWIDTH 31 0
BBX 29 38 2 -1
BITMAP
00000080
000003C0
000003C0
000007C0
00000F80
00001F00
00003C00
00007000
0000E000
00008000
00000000
00000000
00000000
01F00000
1FF003C0
0FE00780
03E00780
03E00780
03C00780
03C00F00
03C00F00
07800F00
07801E00
07801E00
0F001E00
0F003C00
0F003C00
1E007C00
1E007800
1E00F820
3C01F830
3C037060
3C06F040
3C0CF0C0
3E18F180
1FF0F300
1FE07E00
07803C00
ENDCHAR

STARTCHAR uhungarumlaut
ENCODING 251
SWIDTH 611 0
DWIDTH 31 0
BBX 33 37 2 -1
BITMAP
00003C1E00
00007C3E00
0000FC3E00
0000F87C00
0001F0F800
0003C1E000
0007038000
000C070000
0018040000
0000000000
0000000000
0000000000
01F0000000
1FF003C000
0FE0078000
03E0078000
03E0078000
03C0078000
03C00F0000
03C00F0000
07800F0000
07801E0000
07801E0000
0F001E0000
0F003C0000
0F003C0000
1E007C0000
1E00780000
1E00F82000
3C01F83000
3C03706000
3C06F04000
3C0CF0C000
3E18F18000
1FF0F30000
1FE07E0000
07803C0000
ENDCHAR

STARTCHAR udieresis
ENCODING 252
SWIDTH 611 0
DWIDTH 31 0
BBX 29 35 2 -1
BITMAP
000E0380
001F07C0
001F07C0
001F07C0
000E0380
00000000
00000000
00000000
00000000
00000000
01E00000
1FE00780
0FE00780
03C00F00
03C00F00
03C00F00
03801E00
07801E00
07801E00
07803C00
0F003C00
0F003C00
0F007800
0E007800
1E00F800
1E00F000
1C01F000
3C03F060
3C02E040
3C06E0C0
3C0DE180
3E39E100
1FF1E700
1FC0FC00
07007800
ENDCHAR

STARTCHAR yacute
ENCODING 253
SWIDTH 500 0
DWIDTH 25 0
BBX 29 47 -3 -10
BITMAP
00000100
00000780
00000F80
00000F80
00001F00
00003E00
00007800
0000E000
0001C000
00010000
00000000
00000000
00000000
007800E0
00FC01E0
01FC01E0
01BE01E0
031E01E0
031E01E0
020F00C0
020F01C0
00070180
00070180
00078100
00078300
00078200
00038600
0003C400
0003CC00
0003C800
0003D800
0001F000
0001F000
0001E000
0001C000
0001C000
00018000
00018000
00030000
00060000
00060000
3C0C0000
7C180000
7C300000
7CE00000
3FC00000
1F000000
ENDCHAR

STARTCHAR tcommaaccent
ENCODING 254
SWIDTH 352 0
DWIDTH 18 0
BBX 17 42 1 -11
BITMAP
007800
007800
007800
007000
00F000
00F000
00F000
01E000
1FFE00
3FFE00
01E000
03C000
03C000
03C000
078000
078000
078000
078000
0F0000
0F0000
0F0000
1E0000
1E0000
1E0400
1E0600
3C0C00
3C0800
3C1800
3C3000
3EE000
1FC000
0F8000
000000
000000
1C0000
3E0000
3E0000
1E0000
0C0000
0C0000
300000
200000
ENDCHAR

STARTCHAR dotaccent
ENCODING 255
SWIDTH 333 0
DWIDTH 17 0
BBX 8 5 10 29
BITMAP
38
7C
7C
7C
38
ENDCHAR
ENDFONT
